<svg width="42" height="42" viewBox="0 0 42 42" fill="none" xmlns="http://www.w3.org/2000/svg">
<circle cx="21" cy="21.0044" r="21" fill="#F8D7B0"/>
<path d="M13.7862 11.0044C12.251 11.0044 11.0011 12.2541 11 13.7905C11 15.3269 12.2499 16.5768 13.7862 16.5768C15.322 16.5768 16.5713 15.3269 16.5713 13.7905C16.5713 12.2542 15.3219 11.0044 13.7862 11.0044Z" fill="#EA7E01"/>
<path d="M15.8773 17.6962H11.6948C11.4959 17.6962 11.3345 17.8575 11.3345 18.0566V31.5189C11.3345 31.7179 11.4959 31.8792 11.6948 31.8792H15.8773C16.0763 31.8792 16.2377 31.7178 16.2377 31.5189V18.0566C16.2377 17.8574 16.0764 17.6962 15.8773 17.6962Z" fill="#EA7E01"/>
<path d="M26.5697 17.5377C25.0391 17.5377 23.6941 18.0038 22.8733 18.7638V18.0566C22.8733 17.8575 22.7119 17.6962 22.5129 17.6962H18.5008C18.3018 17.6962 18.1404 17.8575 18.1404 18.0566V31.5189C18.1404 31.718 18.3018 31.8793 18.5008 31.8793H22.6793C22.8783 31.8793 23.0397 31.7179 23.0397 31.5189V24.8585C23.0397 22.9474 23.3912 21.763 25.1454 21.763C26.8737 21.765 27.0031 23.0352 27.0031 24.9726V31.5189C27.0031 31.718 27.1644 31.8793 27.3636 31.8793H31.544C31.7429 31.8793 31.9043 31.7179 31.9043 31.5189V24.1343C31.9042 21.063 31.2979 17.5377 26.5697 17.5377Z" fill="#EA7E01"/>
</svg>
