<svg width="111" height="124" viewBox="0 0 111 124" fill="none" xmlns="http://www.w3.org/2000/svg">
<path d="M69.1428 84.4471C72.431 80.8209 74.4372 76.012 74.4372 70.7432V59.2233C74.4372 54.6655 72.0195 50.7164 67.6298 48.1035C63.9963 45.9407 59.1617 44.7496 54.0167 44.7496C48.8714 44.7496 44.0371 45.9407 40.4033 48.1035C36.0134 50.7162 33.5959 54.6655 33.5959 59.2233V70.7432C33.5959 76.0108 35.6012 80.8187 38.8882 84.4445C30.2878 89.4837 24.8975 98.6965 24.8975 108.811V121.58C24.8975 122.917 25.981 124 27.3174 124H80.7085C82.0451 124 83.1284 122.917 83.1284 121.58V108.811C83.1286 98.6985 77.7402 89.4868 69.1428 84.4471ZM38.4363 59.2233C38.4363 52.8988 46.2742 49.5895 54.0169 49.5895C61.7594 49.5895 69.5974 52.8985 69.5974 59.2233V64.4313C62.8122 65.0813 59.0445 63.3344 56.0973 58.372C55.6614 57.6382 54.8711 57.1879 54.0177 57.1877C54.0172 57.1877 54.0169 57.1877 54.0167 57.1877C53.1635 57.1877 52.3732 57.6372 51.937 58.3703C48.9843 63.3325 45.2182 65.0791 38.4363 64.4313V59.2233ZM38.4363 69.2833C45.4449 69.842 50.34 68.1309 54.0152 63.7919C57.24 67.603 61.4068 69.3879 67.1232 69.3879C67.9171 69.3879 68.742 69.3523 69.5974 69.2842V70.7432C69.5974 79.3346 62.6081 86.3239 54.0167 86.3239C45.4256 86.3239 38.4363 79.3346 38.4363 70.7432V69.2833ZM59.1043 100.391L54.016 105.52L48.923 100.391L51.2083 90.9661C52.1271 91.093 53.0634 91.164 54.0167 91.164C54.9695 91.164 55.9058 91.0933 56.8241 90.9664L59.1043 100.391ZM78.2885 119.16H29.7376V108.811C29.7376 99.861 34.8352 91.7607 42.8298 87.8143C43.9857 88.5745 45.2236 89.2187 46.5263 89.7344L43.9003 100.565C43.7021 101.382 43.9424 102.244 44.5348 102.84L52.2993 110.66C52.7537 111.118 53.372 111.375 54.0167 111.375H54.0172C54.6621 111.375 55.2804 111.117 55.7348 110.659L63.4925 102.84C64.084 102.243 64.3242 101.383 64.1266 100.566L61.5059 89.7346C62.8079 89.2192 64.0447 88.5755 65.2004 87.816C73.1926 91.7632 78.2885 99.8622 78.2885 108.811V119.16Z" fill="#EA7E01"/>
<path d="M41.8085 26.6737L41.4448 38.1665C41.4196 38.9681 41.7928 39.7298 42.4414 40.2011C43.0899 40.6724 43.9301 40.7913 44.6843 40.5198L55.5001 36.6208L66.316 40.5198C66.5831 40.6157 66.8604 40.6632 67.1365 40.6632C67.6408 40.6632 68.1399 40.5058 68.5589 40.2011C69.2077 39.73 69.5809 38.9681 69.5555 38.1665L69.1917 26.6737L76.2435 17.5861C76.7349 16.9527 76.881 16.1167 76.633 15.3543C76.3852 14.5919 75.7759 14.0017 75.0057 13.7781L63.9665 10.575L57.5018 1.06012C57.0514 0.397007 56.3018 6.10352e-05 55.5001 6.10352e-05C54.6985 6.10352e-05 53.9489 0.397007 53.4985 1.06012L47.0337 10.575L35.9943 13.7781C35.2242 14.0017 34.6151 14.5919 34.3671 15.3543C34.1193 16.1169 34.2651 16.9527 34.7565 17.5861L41.8085 26.6737ZM49.2197 14.9804C49.761 14.8234 50.2304 14.4822 50.5471 14.016L55.5001 6.72635L60.4531 14.0162C60.7699 14.4824 61.239 14.8234 61.7806 14.9806L70.2353 17.434L64.8336 24.3952C64.4882 24.8406 64.309 25.392 64.3267 25.9556L64.6052 34.7582L56.3209 31.772C56.0557 31.6763 55.7779 31.6286 55.5001 31.6286C55.2223 31.6286 54.9446 31.6763 54.6794 31.772L46.3951 34.7582L46.6736 25.9556C46.6913 25.3923 46.5121 24.8406 46.1667 24.3952L40.7649 17.434L49.2197 14.9804Z" fill="#EA7E01"/>
<path d="M27.3526 50.3499C27.8568 50.3499 28.3559 50.1925 28.7752 49.8878C29.4237 49.4168 29.797 48.6546 29.7715 47.8532L29.4831 38.7431L35.0723 31.5438C35.5639 30.9102 35.7102 30.0742 35.4622 29.3115C35.2145 28.5489 34.6049 27.9587 33.8345 27.7354L25.0816 25.1977L19.9632 17.6606C19.5127 16.9973 18.7629 16.6001 17.961 16.6001C17.1591 16.6001 16.4095 16.9973 15.9591 17.6604L10.8402 25.1977L2.08751 27.7354C1.31711 27.9587 0.707763 28.5489 0.459762 29.3115C0.212004 30.0744 0.358043 30.9102 0.849685 31.5436L6.43866 38.7431L6.15045 47.8535C6.12527 48.6549 6.49848 49.4165 7.14681 49.8878C7.79564 50.3591 8.63554 50.4781 9.38972 50.2066L17.961 47.1177L26.5323 50.2066C26.7989 50.3029 27.0765 50.3499 27.3526 50.3499ZM24.8212 44.4451L18.7815 42.2684C18.2511 42.0773 17.6709 42.0773 17.1405 42.2684L11.1008 44.4451L11.304 38.024C11.3217 37.4609 11.1424 36.9087 10.7966 36.4636L6.85885 31.3912L13.0259 29.6031C13.5675 29.4462 14.0373 29.105 14.3541 28.6385L17.961 23.3276L21.5677 28.6385C21.8847 29.1052 22.3543 29.4462 22.8961 29.6034L29.0631 31.3915L25.1254 36.4636C24.7796 36.909 24.6003 37.4609 24.618 38.0245L24.8212 44.4451Z" fill="#EA7E01"/>
<path d="M110.54 29.3111C110.292 28.5484 109.683 27.9587 108.913 27.7354L100.16 25.1977L95.041 17.6604C94.5908 16.9973 93.841 16.6001 93.0391 16.6001C92.2372 16.6001 91.4877 16.9973 91.0369 17.6606L85.9185 25.1977L77.1656 27.7354C76.3952 27.9587 75.7859 28.5489 75.5379 29.3115C75.2901 30.0744 75.4362 30.9102 75.9278 31.5438L81.517 38.7431L81.2286 47.8532C81.2034 48.6546 81.5766 49.4165 82.2249 49.8878C82.8738 50.3591 83.7137 50.4781 84.4678 50.2066L93.0394 47.1177L101.618 50.2068C101.885 50.3027 102.162 50.3499 102.437 50.3499C102.942 50.3499 103.441 50.1923 103.86 49.8876C104.509 49.4165 104.882 48.6546 104.856 47.8535L104.568 38.7423L110.151 31.5428C110.643 30.909 110.788 30.0735 110.54 29.3111ZM100.209 36.4648C99.8642 36.91 99.6852 37.4612 99.7029 38.0243L99.9061 44.4459L93.8589 42.2684C93.5937 42.1729 93.3164 42.1252 93.0389 42.1252C92.7611 42.1252 92.4835 42.1729 92.2183 42.2686L86.1787 44.4454L86.3821 38.0245C86.3998 37.4612 86.2206 36.909 85.8747 36.4636L81.937 31.3915L88.104 29.6034C88.6456 29.4464 89.1154 29.1052 89.4325 28.6385L93.0391 23.3276L96.6463 28.6387C96.963 29.1052 97.4326 29.4462 97.9744 29.6034L104.143 31.3919L100.209 36.4648Z" fill="#EA7E01"/>
</svg>
