<svg width="74" height="65" viewBox="0 0 74 65" fill="none" xmlns="http://www.w3.org/2000/svg">
<path d="M71.3183 51.0112H24.1075C22.9194 51.0112 21.9551 51.9755 21.9551 53.1637V62.3476C21.9551 63.5357 22.9194 64.5 24.1075 64.5H71.3183C72.5065 64.5 73.4708 63.5357 73.4708 62.3476V53.1637C73.4708 51.9755 72.5065 51.0112 71.3183 51.0112Z" fill="#EA7E01"/>
<path d="M14.9238 51.0112H2.15247C0.964305 51.0112 0 51.9755 0 53.1637V62.3476C0 63.5357 0.964305 64.5 2.15247 64.5H14.9238C16.1119 64.5 17.0762 63.5357 17.0762 62.3476V53.1637C17.0762 51.9755 16.1119 51.0112 14.9238 51.0112Z" fill="#EA7E01"/>
<path d="M71.3183 8.53589H46.6367V26.6166H71.3183C72.5065 26.6166 73.4708 25.6523 73.4708 24.4641V10.6884C73.4708 9.50019 72.5065 8.53589 71.3183 8.53589Z" fill="#EA7E01"/>
<path d="M13.9839 36.4663C14.2236 37.4249 15.0845 38.0965 16.0718 38.0965H22.9597C23.947 38.0965 24.808 37.4249 25.0476 36.4663L27.3436 27.2825C27.5043 26.6396 27.3608 25.958 26.9518 25.4357C26.5443 24.9133 25.9186 24.6077 25.2557 24.6077H21.6682V21.8812C21.6682 20.6943 22.6338 19.7287 23.8207 19.7287H32.2871V25.6122C32.2871 26.8003 33.2514 27.7646 34.4395 27.7646H40.1794C41.3676 27.7646 42.3319 26.8003 42.3319 25.6122V9.54041C42.3319 8.35224 41.3676 7.38794 40.1794 7.38794H34.4395C33.2514 7.38794 32.2871 8.35224 32.2871 9.54041V15.4238H23.8207C20.2601 15.4238 17.3633 18.3206 17.3633 21.8812V24.6077H13.7758C13.1129 24.6077 12.4872 24.9133 12.0797 25.4357C11.6707 25.958 11.5272 26.6396 11.6879 27.2825L13.9839 36.4663Z" fill="#EA7E01"/>
<path d="M67.5874 2.65247C67.5874 1.46431 66.6231 0.5 65.435 0.5H56.2511C55.0629 0.5 54.0986 1.46431 54.0986 2.65247V4.23094H67.5874V2.65247Z" fill="#EA7E01"/>
<path d="M4.59192 47.2803H6.88788C8.07662 47.2803 9.04035 46.3165 9.04035 45.1278C9.04035 43.9391 8.07662 42.9753 6.88788 42.9753H4.59192C3.40318 42.9753 2.43945 43.9391 2.43945 45.1278C2.43945 46.3165 3.40318 47.2803 4.59192 47.2803Z" fill="#EA7E01"/>
<path d="M6.51393 38.614C6.9341 39.0344 7.48498 39.2445 8.03587 39.2445C8.58676 39.2445 9.13765 39.0344 9.55781 38.614C10.3984 37.7733 10.3984 36.4106 9.55781 35.5699L8.40983 34.422C7.56936 33.5814 6.20642 33.5814 5.36581 34.422C4.5252 35.2626 4.5252 36.6254 5.36581 37.466L6.51393 38.614Z" fill="#EA7E01"/>
<path d="M32.1437 47.2803H34.4396C35.6284 47.2803 36.5921 46.3165 36.5921 45.1278C36.5921 43.9391 35.6284 42.9753 34.4396 42.9753H32.1437C30.9549 42.9753 29.9912 43.9391 29.9912 45.1278C29.9912 46.3165 30.9549 47.2803 32.1437 47.2803Z" fill="#EA7E01"/>
<path d="M32.5177 38.614L33.6657 37.466C34.5063 36.6254 34.5063 35.2626 33.6657 34.422C32.8253 33.5814 31.4623 33.5814 30.6217 34.422L29.4737 35.5699C28.6331 36.4106 28.6331 37.7733 29.4737 38.614C29.894 39.0344 30.4449 39.2445 30.9958 39.2445C31.5467 39.2445 32.0976 39.0344 32.5177 38.614Z" fill="#EA7E01"/>
<path d="M19.5157 41.8274C18.327 41.8274 17.3633 42.7911 17.3633 43.9799V47.4238C17.3633 48.6125 18.327 49.5763 19.5157 49.5763C20.7045 49.5763 21.6682 48.6125 21.6682 47.4238V43.9799C21.6682 42.7911 20.7045 41.8274 19.5157 41.8274Z" fill="#EA7E01"/>
</svg>
