<svg width="41" height="41" viewBox="0 0 41 41" fill="none" xmlns="http://www.w3.org/2000/svg">
<path d="M0.166626 20.9558C0.166626 29.5551 5.59413 36.8859 13.21 39.7118L14.9492 20.9558L13.21 2.19983C5.59413 5.02577 0.166626 12.3565 0.166626 20.9558Z" fill="#6DA544"/>
<path d="M40.1666 20.9558C40.1666 9.91018 31.2122 0.955811 20.1666 0.955811C17.7202 0.955811 15.3767 1.39589 13.21 2.1998V39.7118C15.3767 40.5158 17.7202 40.9558 20.1666 40.9558C31.2122 40.9558 40.1666 32.0014 40.1666 20.9558Z" fill="#D80027"/>
<path d="M13.2101 27.9122C17.0521 27.9122 20.1666 24.7977 20.1666 20.9558C20.1666 17.1138 17.0521 13.9993 13.2101 13.9993C9.36819 13.9993 6.25366 17.1138 6.25366 20.9558C6.25366 24.7977 9.36819 27.9122 13.2101 27.9122Z" fill="#FFDA44"/>
<path d="M9.297 17.4775V21.8254C9.297 23.9864 11.0489 25.7384 13.21 25.7384C15.3712 25.7384 17.1231 23.9865 17.1231 21.8254V17.4775H9.297Z" fill="#D80027"/>
<path d="M13.2101 23.1297C12.4909 23.1297 11.9058 22.5446 11.9058 21.8254V20.0863H14.5144V21.8254C14.5144 22.5446 13.9293 23.1297 13.2101 23.1297Z" fill="#F0F0F0"/>
</svg>
