<svg width="64" height="65" viewBox="0 0 64 65" fill="none" xmlns="http://www.w3.org/2000/svg">
<path d="M30.125 62.625C30.125 63.6605 30.9645 64.5 32 64.5C33.0355 64.5 33.875 63.6605 33.875 62.625V40.5H30.125V62.625Z" fill="#EA7E01"/>
<path d="M1.875 4.25H11.6112C12.4439 7.48475 15.3802 9.875 18.875 9.875V15.5H45.125V9.875C48.6198 9.875 51.5561 7.48475 52.3887 4.25H62.125C63.1605 4.25 64 3.4105 64 2.375C64 1.3395 63.1605 0.5 62.125 0.5H1.875C0.8395 0.5 0 1.3395 0 2.375C0 3.4105 0.8395 4.25 1.875 4.25Z" fill="#EA7E01"/>
<path d="M62.125 55.75H39.5C38.4645 55.75 37.625 56.5895 37.625 57.625V62.625C37.625 63.6605 38.4645 64.5 39.5 64.5H62.125C63.1605 64.5 64 63.6605 64 62.625V57.625C64 56.5895 63.1605 55.75 62.125 55.75Z" fill="#EA7E01"/>
<path d="M24.5 55.75H1.875C0.8395 55.75 0 56.5895 0 57.625V62.625C0 63.6605 0.8395 64.5 1.875 64.5H24.5C25.5355 64.5 26.375 63.6605 26.375 62.625V57.625C26.375 56.5895 25.5355 55.75 24.5 55.75Z" fill="#EA7E01"/>
<path d="M42.8707 42.7637L46.4062 39.2282C47.1385 38.4959 47.1385 37.3088 46.4062 36.5765C45.674 35.8443 44.4869 35.8443 43.7546 36.5765L40.2191 40.112C39.4869 40.8443 39.4869 42.0314 40.2191 42.7637C40.9514 43.4959 42.1385 43.4959 42.8707 42.7637Z" fill="#EA7E01"/>
<path d="M44.5 49.5H49.5C50.5355 49.5 51.375 48.6605 51.375 47.625C51.375 46.5895 50.5355 45.75 49.5 45.75H44.5C43.4645 45.75 42.625 46.5895 42.625 47.625C42.625 48.6605 43.4645 49.5 44.5 49.5Z" fill="#EA7E01"/>
<path d="M23.7807 42.7637C24.513 42.0314 24.513 40.8443 23.7807 40.112L20.2452 36.5765C19.513 35.8443 18.3259 35.8443 17.5936 36.5765C16.8614 37.3088 16.8614 38.4959 17.5936 39.2282L21.1291 42.7637C21.8614 43.4959 23.0485 43.4959 23.7807 42.7637Z" fill="#EA7E01"/>
<path d="M19.5 45.75H14.5C13.4645 45.75 12.625 46.5895 12.625 47.625C12.625 48.6605 13.4645 49.5 14.5 49.5H19.5C20.5355 49.5 21.375 48.6605 21.375 47.625C21.375 46.5895 20.5355 45.75 19.5 45.75Z" fill="#EA7E01"/>
<path d="M38.875 34.875V29.25H25.125V34.875C25.125 35.9105 25.9645 36.75 27 36.75H37C38.0355 36.75 38.875 35.9105 38.875 34.875Z" fill="#EA7E01"/>
<path d="M44.2894 19.25H19.7109L23.6172 25.5H40.3832L44.2894 19.25Z" fill="#EA7E01"/>
</svg>
