<svg width="41" height="41" viewBox="0 0 41 41" fill="none" xmlns="http://www.w3.org/2000/svg">
<path d="M20.5 40.9558C31.5457 40.9558 40.5 32.0015 40.5 20.9558C40.5 9.91012 31.5457 0.955811 20.5 0.955811C9.4543 0.955811 0.5 9.91012 0.5 20.9558C0.5 32.0015 9.4543 40.9558 20.5 40.9558Z" fill="#F0F0F0"/>
<path d="M19.6304 20.9557H40.5C40.5 19.1505 40.2593 17.4018 39.811 15.7383H19.6304V20.9557Z" fill="#D80027"/>
<path d="M19.6304 10.5209H37.5645C36.3402 8.52308 34.7748 6.75722 32.9496 5.30347H19.6304V10.5209Z" fill="#D80027"/>
<path d="M20.5 40.9556C25.2069 40.9556 29.5333 39.3287 32.9497 36.6078H8.05029C11.4667 39.3287 15.793 40.9556 20.5 40.9556Z" fill="#D80027"/>
<path d="M3.43545 31.3904H37.5645C38.5474 29.7866 39.3097 28.0334 39.811 26.173H1.18896C1.69029 28.0334 2.45256 29.7866 3.43545 31.3904Z" fill="#D80027"/>
<path d="M9.76437 4.07909H11.587L9.89164 5.31073L10.5392 7.30362L8.84398 6.07198L7.14875 7.30362L7.70813 5.58198C6.21547 6.82534 4.90719 8.28206 3.82906 9.90519H4.41305L3.33391 10.6892C3.16578 10.9696 3.00453 11.2546 2.85 11.5437L3.36531 13.1297L2.40391 12.4312C2.16492 12.9375 1.94633 13.4553 1.74984 13.9838L2.31758 15.7313H4.41305L2.71773 16.9629L3.36531 18.9558L1.67008 17.7242L0.654609 18.462C0.552969 19.279 0.5 20.1112 0.5 20.9558H20.5C20.5 9.91018 20.5 8.608 20.5 0.955811C16.5491 0.955811 12.866 2.1019 9.76437 4.07909ZM10.5392 18.9558L8.84398 17.7242L7.14875 18.9558L7.79633 16.9629L6.10102 15.7313H8.19648L8.84398 13.7384L9.49148 15.7313H11.587L9.89164 16.9629L10.5392 18.9558ZM9.89164 11.1368L10.5392 13.1297L8.84398 11.8981L7.14875 13.1297L7.79633 11.1368L6.10102 9.90519H8.19648L8.84398 7.91229L9.49148 9.90519H11.587L9.89164 11.1368ZM17.7131 18.9558L16.0179 17.7242L14.3227 18.9558L14.9702 16.9629L13.2749 15.7313H15.3704L16.0179 13.7384L16.6654 15.7313H18.7609L17.0655 16.9629L17.7131 18.9558ZM17.0655 11.1368L17.7131 13.1297L16.0179 11.8981L14.3227 13.1297L14.9702 11.1368L13.2749 9.90519H15.3704L16.0179 7.91229L16.6654 9.90519H18.7609L17.0655 11.1368ZM17.0655 5.31073L17.7131 7.30362L16.0179 6.07198L14.3227 7.30362L14.9702 5.31073L13.2749 4.07909H15.3704L16.0179 2.0862L16.6654 4.07909H18.7609L17.0655 5.31073Z" fill="#0052B4"/>
</svg>
