<svg width="127" height="124" viewBox="0 0 127 124" fill="none" xmlns="http://www.w3.org/2000/svg">
<path d="M116.803 96.7263V93.1925C116.803 92.1735 115.977 91.3468 114.957 91.3468C113.938 91.3468 113.111 92.1735 113.111 93.1925V96.1236C112.984 96.1197 112.856 96.1178 112.727 96.1178H72.259V82.5949H113.111V85.7682C113.111 86.7872 113.938 87.614 114.957 87.614C115.977 87.614 116.803 86.7872 116.803 85.7682V82.2354C116.803 80.3983 115.309 78.9034 113.471 78.9034H97.24V75.2552C97.24 67.481 92.6881 62.3619 83.3248 59.6058C83.2691 59.5895 83.2133 59.5751 83.1556 59.5645L64.8809 56.0105V52.1556C65.5183 51.7153 66.1402 51.2346 66.7468 50.7126C70.0259 47.8892 72.1187 43.8459 72.6378 39.4219C75.095 39.1441 77.0109 37.0542 77.0109 34.524V31.267C78.6076 30.5191 79.7151 28.8973 79.7151 27.0208C79.7151 24.7848 78.1404 22.9093 76.0419 22.445V21.2741C76.0419 9.54305 66.4978 0 54.7678 0H53.0018C46.1351 0 39.6548 3.34252 35.6654 8.94126C35.0741 9.77184 35.2674 10.9245 36.0979 11.5157C36.9285 12.1079 38.0802 11.9137 38.6714 11.0831C40.1269 9.04027 41.9841 7.36084 44.0913 6.12266V9.61611C44.0913 10.6361 44.9181 11.4618 45.9371 11.4618C46.957 11.4618 47.7828 10.6361 47.7828 9.61611V4.48745C49.1902 4.04813 50.6581 3.78376 52.1549 3.71167V14.0247C52.1549 15.0437 52.9807 15.8705 54.0007 15.8705C55.0197 15.8705 55.8464 15.0437 55.8464 14.0247V3.72416C57.2788 3.81068 58.666 4.07024 59.9868 4.48168V9.61611C59.9868 10.6361 60.8126 11.4618 61.8326 11.4618C62.8516 11.4618 63.6783 10.6361 63.6783 9.61611V6.11978C68.8637 9.18063 72.3504 14.8274 72.3504 21.2731V22.3344H35.4193V21.2731C35.4193 19.884 35.5817 18.5026 35.9018 17.1654C36.1383 16.1742 35.5269 15.1783 34.5358 14.9409C33.5428 14.7025 32.5487 15.3158 32.3113 16.3069C31.9239 17.9248 31.7278 19.5956 31.7278 21.2731V22.445C29.6292 22.9093 28.0546 24.7848 28.0546 27.0208C28.0546 28.8964 29.163 30.5191 30.7588 31.267V34.524C30.7588 37.0532 32.6747 39.1441 35.1318 39.4209C35.6509 43.8459 37.7447 47.8892 41.0228 50.7126C41.6294 51.2346 42.2514 51.7153 42.8887 52.1546V56.0105L24.614 59.5635C24.5563 59.5751 24.5006 59.5885 24.4448 59.6049C15.0815 62.3619 10.5297 67.481 10.5297 75.2552V96.7254C4.82517 98.473 0.665527 103.789 0.665527 110.059C0.665527 117.746 6.91893 124 14.6066 124H112.727C120.414 124 126.668 117.746 126.668 110.059C126.668 103.789 122.508 98.473 116.803 96.7263ZM83.5661 63.5511C90.4559 65.8717 93.5485 69.5199 93.5485 75.2552V78.9034H83.5661V63.5511ZM31.746 27.0208C31.746 26.4719 32.1921 26.0259 32.74 26.0259H75.0296C75.5785 26.0259 76.0246 26.4729 76.0246 27.0208C76.0246 27.5688 75.5775 28.0149 75.0296 28.0149H32.74C32.1921 28.0149 31.746 27.5698 31.746 27.0208ZM38.6993 37.5675C38.6772 36.5639 37.8581 35.7612 36.8535 35.7612H35.6875C35.0059 35.7612 34.4502 35.2065 34.4502 34.524V31.7073H73.3194V34.524C73.3194 35.2065 72.7647 35.7612 72.0822 35.7612H70.9161C69.9125 35.7612 69.0925 36.5639 69.0713 37.5675C68.9838 41.6291 67.2592 45.4004 64.3387 47.9152C61.2961 50.5348 57.7796 51.8874 53.8853 51.9354C49.991 51.8874 46.4745 50.5348 43.4319 47.9152C40.5114 45.4004 38.7858 41.6291 38.6993 37.5675ZM61.1894 54.1686V57.5323C61.1894 61.5592 57.9123 64.8364 53.8853 64.8364C49.8574 64.8364 46.5802 61.5602 46.5802 57.5323V54.1686C48.8595 55.1088 51.2936 55.5981 53.8641 55.6269H53.9055C56.4761 55.5981 58.9101 55.1097 61.1894 54.1686ZM36.8497 60.9459L43.1098 59.7279C44.1298 64.7431 48.574 68.5279 53.8853 68.5279C59.1966 68.5279 63.6398 64.7431 64.6608 59.7279L70.9199 60.9459V71.3676C70.9199 72.377 70.098 73.198 69.0886 73.198H38.682C37.6716 73.198 36.8507 72.377 36.8507 71.3676V60.9459H36.8497ZM27.895 62.6869L33.1592 61.6631V71.3676C33.1592 74.4131 35.6365 76.8894 38.682 76.8894H69.0886C72.1331 76.8894 74.6114 74.4131 74.6114 71.3676V61.6631L79.8746 62.6869V78.9034H71.9005C70.0624 78.9034 68.5676 80.3983 68.5676 82.2354V96.1178H27.895V62.6869ZM14.2221 75.2552C14.2221 69.5199 17.3137 65.8717 24.2035 63.5511V78.9034H14.2221V75.2552ZM14.2221 82.5949H24.2035V96.1178H14.6066C14.4778 96.1178 14.349 96.1197 14.2221 96.1236V82.5949ZM112.727 120.309H14.6066C8.95501 120.309 4.35701 115.711 4.35701 110.059C4.35701 104.407 8.95501 99.8093 14.6066 99.8093H112.727C118.378 99.8093 122.977 104.407 122.977 110.059C122.977 115.711 118.378 120.309 112.727 120.309Z" fill="#EA7E01"/>
<path d="M112.727 103.018H14.6066C10.7238 103.018 7.56494 106.177 7.56494 110.059C7.56494 113.941 10.7238 117.099 14.6066 117.099H112.727C116.61 117.099 119.768 113.941 119.768 110.059C119.769 106.177 116.61 103.018 112.727 103.018ZM14.6066 113.409C12.9474 113.409 11.566 112.196 11.3026 110.61C11.2997 110.596 11.2978 110.583 11.2958 110.568C11.291 110.541 11.2872 110.513 11.2843 110.485C11.2824 110.471 11.2805 110.458 11.2785 110.443C11.2728 110.387 11.267 110.331 11.2641 110.274C11.2593 110.203 11.2564 110.131 11.2564 110.059C11.2564 109.987 11.2593 109.915 11.2641 109.844C11.267 109.788 11.2728 109.731 11.2785 109.675C11.2805 109.661 11.2824 109.647 11.2843 109.633C11.2872 109.605 11.291 109.577 11.2958 109.55C11.2978 109.536 11.2997 109.522 11.3026 109.508C11.566 107.923 12.9474 106.709 14.6066 106.709C16.4533 106.709 17.9559 108.212 17.9559 110.059C17.9559 111.905 16.4533 113.408 14.6066 113.409ZM39.3241 113.409H20.7985C21.3397 112.412 21.6474 111.271 21.6474 110.059C21.6474 108.847 21.3397 107.706 20.7985 106.709H39.3241C38.7829 107.706 38.4753 108.847 38.4753 110.059C38.4753 111.27 38.7829 112.412 39.3241 113.409ZM45.516 113.409C43.6684 113.409 42.1668 111.906 42.1668 110.059C42.1668 108.212 43.6684 106.709 45.516 106.709C47.3627 106.709 48.8653 108.212 48.8653 110.059C48.8653 111.906 47.3627 113.409 45.516 113.409ZM75.6256 113.409H51.7079C52.2491 112.412 52.5568 111.271 52.5568 110.059C52.5568 108.847 52.2491 107.706 51.7079 106.709H75.6256C75.0844 107.706 74.7768 108.847 74.7768 110.059C74.7768 111.27 75.0844 112.412 75.6256 113.409ZM81.8175 113.409C79.9708 113.409 78.4682 111.906 78.4682 110.059C78.4682 108.212 79.9708 106.709 81.8175 106.709C83.6651 106.709 85.1667 108.212 85.1667 110.059C85.1667 111.906 83.6651 113.409 81.8175 113.409ZM88.0094 113.409C88.5506 112.412 88.8582 111.271 88.8582 110.059C88.8582 108.847 88.5506 107.706 88.0094 106.709H106.535C105.994 107.706 105.686 108.847 105.686 110.059C105.686 111.271 105.994 112.412 106.535 113.409H88.0094ZM112.727 113.409C110.88 113.409 109.378 111.905 109.378 110.059C109.378 108.212 110.88 106.709 112.727 106.709C114.574 106.709 116.077 108.212 116.077 110.059C116.077 111.906 114.574 113.409 112.727 113.409Z" fill="#EA7E01"/>
</svg>
