<svg width="153" height="124" viewBox="0 0 153 124" fill="none" xmlns="http://www.w3.org/2000/svg">
<path d="M152.118 117.783L152.016 115.453C151.964 114.262 150.95 113.341 149.766 113.392C148.576 113.444 147.653 114.451 147.706 115.642L147.808 117.99C147.809 118.005 147.81 118.019 147.811 118.033C147.838 118.467 147.69 118.881 147.393 119.197C147.097 119.512 146.697 119.686 146.266 119.686H133.645V79.8643L136.899 81.0143C142.506 82.9959 146.375 88.1135 146.762 94.0566L147.119 102.239C147.171 103.429 148.177 104.354 149.369 104.299C150.559 104.247 151.482 103.24 151.43 102.05L151.071 93.8464C151.07 93.8322 151.069 93.818 151.069 93.8038C150.58 86.1242 145.582 79.5073 138.336 76.9468L132.311 74.8175C132.275 74.8027 132.242 74.7837 132.206 74.771L114.212 68.4113C114.209 68.4101 114.206 68.409 114.203 68.4081C114.136 68.385 114.069 68.3654 114.002 68.348C113.968 68.3388 113.934 68.3329 113.9 68.3255C112.709 68.0173 111.418 68.3598 110.541 69.2388L109.985 69.7961L105.236 67.4127L105.236 63.2505C106.671 62.2628 108.022 61.0847 109.249 59.7701C109.263 59.7544 109.278 59.739 109.292 59.7233C112.391 56.3866 114.678 52.1859 115.456 48.0125C115.476 47.9023 115.497 47.7919 115.516 47.6817C115.535 47.5675 115.553 47.4535 115.57 47.3395C115.598 47.1488 115.623 46.9584 115.645 46.7684C115.65 46.7228 115.657 46.6769 115.662 46.6313C115.684 46.4246 115.702 46.2183 115.716 46.0128H116.612C119.392 46.0128 121.655 43.7505 121.655 40.9698V35.3174C121.655 35.0501 121.631 34.7851 121.589 34.5233C121.907 33.9457 122.09 33.2819 122.09 32.5746V30.1646C122.09 28.3322 120.873 26.7828 119.214 26.3038V25.9636C119.214 25.7578 119.211 25.5523 119.206 25.348C119.06 19.5956 116.802 14.1464 112.847 10.0046C109.239 6.22643 104.52 3.83474 99.4378 3.1819C99.3603 3.04275 99.2762 2.90833 99.1888 2.77628C99.1663 2.74253 99.1426 2.70996 99.1196 2.6765C99.0313 2.5486 98.9384 2.42455 98.8412 2.30434C98.8241 2.28332 98.8078 2.26171 98.7906 2.24098C98.6704 2.0962 98.5443 1.95705 98.4116 1.82411C98.4072 1.81967 98.4025 1.81552 98.3977 1.81079C98.2686 1.68229 98.1336 1.56031 97.9939 1.44365C97.9782 1.43063 97.9628 1.4173 97.9471 1.40428C97.6593 1.1686 97.3505 0.95987 97.0245 0.778969C96.9952 0.762685 96.9662 0.746401 96.9366 0.730413C96.7747 0.643959 96.6097 0.562836 96.4401 0.49089C96.4315 0.487337 96.4223 0.484376 96.4134 0.480528C96.2568 0.414799 96.0963 0.35736 95.9338 0.304659C95.8897 0.290152 95.8453 0.276237 95.8009 0.262913C95.6283 0.211397 95.4542 0.164321 95.2762 0.127608C95.2662 0.125535 95.2561 0.124351 95.246 0.122575C95.0758 0.0882303 94.9029 0.0633597 94.7282 0.0432267C94.6802 0.0376013 94.6323 0.0328644 94.584 0.0284232C94.3981 0.0115471 94.211 0 94.0215 0H91.9854C91.7959 0 91.6088 0.0115471 91.4228 0.0284232C91.3743 0.0328644 91.3263 0.0378974 91.2783 0.0432267C91.1042 0.0630636 90.9316 0.0882305 90.7617 0.122279C90.7513 0.124351 90.741 0.125535 90.7306 0.127608C90.553 0.164321 90.3786 0.211101 90.2063 0.262617C90.1616 0.275941 90.1171 0.290152 90.0727 0.304659C89.9105 0.35736 89.7503 0.414799 89.5937 0.480232C89.5848 0.484081 89.5753 0.487041 89.5665 0.49089C89.3968 0.562836 89.2322 0.64396 89.0702 0.730117C89.0403 0.746105 89.0107 0.762685 88.9811 0.778969C88.823 0.866607 88.6679 0.959574 88.5181 1.06054C88.5178 1.06083 88.5172 1.06113 88.5169 1.06142C88.3588 1.16801 88.2069 1.28318 88.0591 1.40398C88.0432 1.41701 88.0275 1.43063 88.0118 1.44395C87.8723 1.56031 87.7376 1.68199 87.6088 1.81019C87.6041 1.81493 87.599 1.81937 87.5943 1.82411C87.462 1.95675 87.3358 2.0959 87.2159 2.24039C87.1985 2.26141 87.1819 2.28302 87.1647 2.30434C87.0676 2.42425 86.9749 2.5483 86.8867 2.67591C86.8636 2.70937 86.8396 2.74194 86.8171 2.77598C86.7298 2.90774 86.6457 3.04245 86.5681 3.18161C81.486 3.83445 76.7666 6.22642 73.1592 10.004C71.2321 12.0224 69.7115 14.3525 68.6379 16.8753L56.1427 5.17003C53.5781 2.76769 49.5654 2.77302 47.008 5.18277L33.4537 17.9512L33.4514 16.4584C33.4502 15.6028 33.1159 14.7989 32.5098 14.1949C31.905 13.5918 31.1023 13.2599 30.2484 13.2599C30.2469 13.2599 30.2452 13.2599 30.2437 13.2599L20.0825 13.2742C18.3167 13.2768 16.8816 14.7154 16.8837 16.4821L16.9115 33.5345L2.63514 46.9833C1.33804 48.2052 0.594602 49.8588 0.541605 51.6399C0.488607 53.4211 1.13227 55.1161 2.35387 56.4127C3.57547 57.7098 5.22904 58.4532 7.01022 58.5065C7.07861 58.5086 7.14641 58.5094 7.21421 58.5094C8.92048 58.5094 10.5362 57.869 11.7832 56.6939L16.6178 52.1394L16.6388 67.2632C16.6406 68.4534 17.6058 69.4171 18.796 69.4171C18.7969 69.4171 18.7981 69.4171 18.799 69.4171C19.9904 69.4153 20.955 68.4483 20.9532 67.2569L20.9263 48.0808L51.5941 19.1903L63.9149 30.7324V32.5743C63.9149 32.6992 63.9223 32.823 63.9336 32.9459C63.9357 32.9687 63.9374 32.9915 63.9401 33.0143C63.9975 33.5534 64.1586 34.0674 64.4147 34.5305C64.3739 34.7895 64.3511 35.0521 64.3511 35.3171V40.9695C64.3511 43.7502 66.6133 46.0125 69.3944 46.0125H70.2867C70.3007 46.2257 70.3196 46.4394 70.3421 46.6541C70.3483 46.7145 70.3569 46.7752 70.364 46.8356C70.3847 47.0135 70.4078 47.1917 70.4342 47.3706C70.4499 47.4777 70.4665 47.5852 70.4842 47.6924C70.5055 47.82 70.5295 47.9482 70.5535 48.0761C70.6032 48.3411 70.6592 48.6064 70.7211 48.8714C70.7323 48.9199 70.7427 48.9685 70.7545 49.017C70.7975 49.195 70.8439 49.3726 70.8922 49.5503C70.902 49.5858 70.9117 49.6216 70.9218 49.6571C71.3058 51.0428 71.8465 52.4186 72.5191 53.753C72.5262 53.7672 72.5333 53.7814 72.5407 53.7957C72.8096 54.3268 73.0991 54.8506 73.4082 55.366C73.4491 55.4341 73.4894 55.5022 73.5308 55.57C73.6143 55.7065 73.699 55.8424 73.7851 55.9774C73.8503 56.0796 73.9166 56.1811 73.9832 56.2824C74.0581 56.3964 74.1321 56.5109 74.2088 56.624C74.3456 56.8257 74.4859 57.0252 74.6287 57.2236C74.6896 57.3083 74.7521 57.3915 74.814 57.4756C74.9203 57.6197 75.0281 57.763 75.1376 57.9052C75.1974 57.9827 75.2569 58.0603 75.3173 58.137C75.4662 58.3262 75.6178 58.5139 75.7721 58.6992C75.7943 58.7259 75.8156 58.7528 75.8378 58.7792C76.0075 58.9814 76.181 59.18 76.3568 59.3772C76.4187 59.4468 76.4815 59.5152 76.544 59.5839C76.6677 59.7198 76.793 59.8545 76.9197 59.9877C76.9898 60.0615 77.0594 60.1355 77.1302 60.2083C77.2824 60.3646 77.4366 60.5189 77.5924 60.6714C77.7046 60.7812 77.8186 60.8887 77.9328 60.9962C78.0285 61.0862 78.1241 61.1765 78.2212 61.265C78.3388 61.3725 78.4575 61.4779 78.5768 61.5827C78.6402 61.6383 78.7041 61.6934 78.7681 61.7482C79.4132 62.3039 80.0814 62.8212 80.7692 63.2949L80.7686 67.4118L76.022 69.7958L75.4648 69.2377C74.9312 68.7033 74.2452 68.3669 73.5219 68.2541C73.4417 68.2417 73.3609 68.2319 73.2797 68.2248C73.1986 68.218 73.1172 68.2135 73.0355 68.2124C72.9541 68.2112 72.872 68.2127 72.7906 68.2171C72.5668 68.2292 72.3433 68.2645 72.1227 68.3204C72.0806 68.3293 72.0383 68.3376 71.9963 68.3488C71.9305 68.366 71.8518 68.3894 71.7937 68.4101L63.6941 71.2729L63.6728 55.9292C63.6701 53.9508 62.0597 52.3437 60.0823 52.3437C60.0805 52.3437 60.079 52.3437 60.0772 52.3437L43.204 52.3674C42.245 52.3689 41.3438 52.7434 40.6667 53.4226C39.9895 54.1015 39.6171 55.0039 39.6186 55.9629L39.6556 82.367C39.6526 82.3706 39.6496 82.3741 39.6464 82.3777C39.5881 82.444 39.5327 82.5127 39.4753 82.5799C39.3835 82.6874 39.2911 82.7943 39.2017 82.9041C39.1454 82.9731 39.0918 83.0442 39.0368 83.114C38.9494 83.2242 38.8615 83.3337 38.7768 83.4459C38.7226 83.5176 38.6711 83.5913 38.6178 83.6638C38.5352 83.7764 38.4514 83.8883 38.3712 84.0028C38.3194 84.0766 38.2705 84.1524 38.2199 84.2267C38.1414 84.3419 38.0621 84.4567 37.986 84.5737C37.9366 84.6498 37.8898 84.7279 37.8415 84.8049C37.7675 84.9224 37.6926 85.0397 37.6213 85.159C37.5748 85.2366 37.5312 85.3159 37.4856 85.3941C37.4158 85.5149 37.3447 85.6351 37.2772 85.7574C37.2328 85.8382 37.1911 85.9205 37.1478 86.0022C37.0833 86.1239 37.0176 86.2447 36.9554 86.3679C36.9119 86.454 36.8716 86.5417 36.8293 86.6284C36.7706 86.7489 36.7111 86.8688 36.6549 86.9908C36.6137 87.0799 36.5758 87.1705 36.5361 87.2605C36.4826 87.3822 36.4278 87.503 36.3766 87.6259C36.3381 87.7183 36.3025 87.8124 36.2655 87.9057C36.217 88.0274 36.1672 88.1485 36.1213 88.2713C36.0852 88.3679 36.0524 88.4656 36.0177 88.5627C35.9745 88.6844 35.9298 88.8055 35.8886 88.928C35.8555 89.0272 35.8256 89.1279 35.7942 89.2277C35.7557 89.3496 35.7157 89.471 35.6796 89.5942C35.6497 89.6963 35.6231 89.7997 35.5946 89.9024C35.5609 90.025 35.5256 90.147 35.4943 90.2704C35.4679 90.374 35.4448 90.4791 35.4202 90.5837C35.3909 90.7074 35.3601 90.8309 35.3332 90.9555C35.3101 91.0627 35.2906 91.1711 35.2692 91.2788C35.245 91.402 35.2192 91.5246 35.197 91.6483C35.1772 91.7603 35.1609 91.8731 35.1431 91.9853C35.1239 92.1064 35.1028 92.2272 35.086 92.3489C35.0697 92.4643 35.0573 92.5807 35.0433 92.6964C35.0288 92.8167 35.0125 92.9363 35.0001 93.0571C34.988 93.1746 34.9797 93.293 34.9699 93.4112C34.9607 93.5213 34.9492 93.6311 34.9418 93.7416L21.0784 93.7608C21.0299 93.7608 20.9905 93.7215 20.9905 93.6729L20.9724 80.6605C20.9707 79.47 20.0055 78.5062 18.8153 78.5062C18.8144 78.5062 18.8132 78.5062 18.8123 78.5062C17.6209 78.508 16.6563 79.475 16.6581 80.6664L16.6761 93.6791C16.6797 96.1045 18.6539 98.0752 21.0784 98.0752C21.0805 98.0752 21.0826 98.0752 21.0844 98.0752L34.7514 98.0563L33.8887 117.783C33.793 119.387 34.368 120.978 35.4676 122.15C36.5711 123.326 38.1287 124 39.7405 124H146.266C147.878 124 149.435 123.326 150.538 122.15C151.638 120.978 152.213 119.387 152.118 117.783ZM117.34 40.9695C117.34 41.3712 117.013 41.6981 116.612 41.6981H115.75V36.5879H117.34V40.9695ZM90.1479 5.75981C90.15 5.75211 90.1536 5.74501 90.1556 5.73731C90.235 5.42762 90.3886 5.15286 90.5935 4.92903C90.5986 4.92341 90.6036 4.91778 90.6086 4.91245C90.6735 4.84317 90.7436 4.77922 90.8179 4.72059C90.8265 4.71379 90.8357 4.70727 90.8446 4.70076C90.995 4.58647 91.1623 4.49528 91.3417 4.42985C91.3553 4.42482 91.3686 4.41949 91.3823 4.41505C91.4684 4.38603 91.5573 4.36323 91.6481 4.34665C91.6644 4.34369 91.681 4.34162 91.6973 4.33925C91.7917 4.32475 91.8874 4.31497 91.9851 4.31497H94.0212C94.1189 4.31497 94.2148 4.32475 94.309 4.33925C94.3252 4.34162 94.3418 4.34369 94.3581 4.34665C94.4487 4.36323 94.5375 4.38574 94.6237 4.41505C94.6376 4.41979 94.6512 4.42511 94.6651 4.43015C94.844 4.49528 95.0109 4.58647 95.1611 4.70046C95.1702 4.70727 95.1797 4.71408 95.1886 4.72089C95.2626 4.77922 95.3322 4.84287 95.397 4.91186C95.4026 4.91778 95.4077 4.9237 95.413 4.92962C95.6176 5.15345 95.771 5.42762 95.8503 5.73702C95.8524 5.74471 95.8559 5.75152 95.858 5.75922C95.8932 5.90311 95.914 6.05293 95.914 6.20748V13.4864C95.914 14.5301 95.0648 15.3792 94.0215 15.3792H91.9854C90.9417 15.3792 90.0926 14.5301 90.0926 13.4864V6.20748C90.0926 6.05293 90.113 5.9037 90.1479 5.75981ZM29.1387 17.5755L29.1459 22.0089L21.2191 29.4765L21.1998 17.5868L29.1387 17.5755ZM67.1904 21.6806C67.1492 21.902 67.109 22.1235 67.074 22.3467C67.0545 22.4717 67.0385 22.5966 67.021 22.7219C66.9926 22.9253 66.9636 23.1284 66.9405 23.333C66.921 23.5044 66.9073 23.6761 66.8917 23.8478C66.8772 24.0092 66.8597 24.1697 66.8484 24.3316C66.8247 24.6703 66.8079 25.009 66.7993 25.348C66.794 25.5526 66.7913 25.7581 66.7913 25.9639V26.3038C66.7868 26.3049 66.783 26.307 66.7786 26.3082C66.6474 26.3467 66.5201 26.3938 66.3949 26.445C66.3543 26.4616 66.3143 26.4787 66.2743 26.4965C66.1639 26.5462 66.0555 26.5998 65.9507 26.6593C65.9353 26.6682 65.9185 26.6744 65.9031 26.6833L53.0647 14.6565C52.2334 13.8781 50.9398 13.8793 50.1108 14.6607L8.82485 53.5541C8.36683 53.9857 7.77142 54.2155 7.13871 54.1945C6.50956 54.1755 5.9257 53.9129 5.49402 53.4549C5.06235 52.9968 4.83497 52.3982 4.85362 51.769C4.87257 51.1399 5.13518 50.5557 5.59321 50.1243L49.966 8.32292C50.4187 7.89658 51.0002 7.68311 51.5817 7.68311C52.1611 7.68311 52.7408 7.8948 53.1929 8.31848L67.228 21.4659C67.2138 21.5376 67.2037 21.6092 67.1904 21.6806ZM69.3944 41.6984C68.9923 41.6984 68.6654 41.3715 68.6654 40.9698V36.5882H70.2553V41.6984H69.3944ZM68.2296 31.6026V30.4651H68.9488C70.1402 30.4651 71.106 29.4993 71.106 28.3079V25.9633C71.106 25.7942 71.108 25.6257 71.1125 25.4573C71.1208 25.1286 71.1397 24.7997 71.1655 24.4711C71.172 24.3873 71.1815 24.3041 71.1892 24.2203C71.2123 23.9671 71.2392 23.7143 71.2727 23.4617C71.2836 23.3794 71.2955 23.2974 71.3076 23.2151C71.3467 22.9481 71.3908 22.6819 71.4411 22.4166C71.4524 22.3571 71.463 22.2976 71.4746 22.2381C71.5394 21.913 71.6114 21.5891 71.6931 21.2673C71.6934 21.2655 71.6937 21.2637 71.694 21.2619C72.4827 18.1712 74.0478 15.32 76.279 12.9831C78.8794 10.2598 82.188 8.42803 85.7776 7.68607V13.4853C85.7776 16.9079 88.5622 19.6921 91.9848 19.6921H94.0209C97.4435 19.6921 100.228 16.9076 100.228 13.4853V7.68666C103.817 8.42862 107.126 10.2604 109.727 12.9837C112.94 16.3486 114.775 20.7784 114.893 25.4576C114.898 25.6258 114.9 25.7942 114.9 25.9633V28.3079C114.9 29.4993 115.865 30.4651 117.057 30.4651H117.776V31.6026H68.2296ZM74.6515 46.3692C74.6476 46.3361 74.6441 46.3029 74.6402 46.2695C74.6207 46.0886 74.6053 45.9086 74.5937 45.7291C74.5919 45.7004 74.5896 45.6717 74.5878 45.643C74.5762 45.436 74.5697 45.23 74.5697 45.0254V36.5882H111.436V44.9804C111.436 45.187 111.429 45.3955 111.417 45.6045C111.416 45.6285 111.414 45.6525 111.412 45.6764C111.401 45.86 111.385 46.0445 111.365 46.2295C111.361 46.2621 111.358 46.2946 111.354 46.3272C111.33 46.53 111.302 46.7334 111.269 46.9377C111.268 46.9389 111.268 46.9398 111.268 46.941C110.503 51.5553 107.201 56.4807 103.155 59.4329C103.126 59.4539 103.097 59.4755 103.068 59.4963C102.939 59.5886 102.81 59.6772 102.68 59.7654C102.609 59.8136 102.538 59.8637 102.467 59.9108C102.429 59.9356 102.391 59.9587 102.352 59.9833C102.221 60.0683 102.089 60.1529 101.956 60.2341C101.949 60.2382 101.943 60.2435 101.936 60.2477C100.734 60.979 99.484 61.5282 98.2299 61.8403L98.0042 61.8965C93.4027 63.0408 92.3463 63.0382 87.7278 61.8737C86.4855 61.5605 85.2476 61.0136 84.0559 60.2871C84.0533 60.2853 84.0509 60.2832 84.0482 60.2817C84.0006 60.2527 83.9541 60.2216 83.9064 60.192C83.7655 60.1041 83.6248 60.0156 83.4854 59.9229C83.4508 59.9001 83.4167 59.8758 83.3824 59.8527C78.9155 56.8322 75.2338 51.351 74.6515 46.3692ZM82.8861 71.1769C84.209 70.6748 85.0833 69.4201 85.0833 67.9885L85.0836 65.5646C85.6094 65.7576 86.14 65.9225 86.6735 66.0572C89.3234 66.7252 91.1087 67.0586 92.8967 67.0586C94.6642 67.0586 96.4348 66.7329 99.0461 66.0836L99.2717 66.0273C99.8257 65.8897 100.376 65.7182 100.922 65.5178L100.922 67.9885C100.922 69.4203 101.796 70.6754 103.12 71.1772L106.576 72.9125C106.535 72.9442 106.494 72.9777 106.453 73.009C106.358 73.0804 106.261 73.1494 106.165 73.2193C105.983 73.351 105.801 73.4804 105.616 73.6062C105.512 73.6767 105.409 73.746 105.304 73.8147C105.116 73.9384 104.925 74.0586 104.733 74.1765C104.635 74.2366 104.537 74.2979 104.439 74.3565C104.204 74.4956 103.966 74.6295 103.726 74.7597C103.67 74.7905 103.615 74.8234 103.558 74.8536C103.261 75.0117 102.96 75.1624 102.656 75.3069C102.574 75.3457 102.492 75.3809 102.41 75.4188C102.185 75.5221 101.959 75.6231 101.732 75.7187C101.622 75.7649 101.511 75.8084 101.401 75.8528C101.194 75.9354 100.987 76.0154 100.778 76.0921C100.663 76.1344 100.548 76.1761 100.432 76.2164C100.215 76.2916 99.9968 76.3627 99.7777 76.4314C99.6729 76.4642 99.5684 76.4986 99.463 76.53C99.1743 76.6158 98.8836 76.6957 98.5911 76.7698C98.5558 76.7786 98.5212 76.7893 98.486 76.7979C98.1567 76.8796 97.8248 76.9527 97.4911 77.0197C97.3955 77.0389 97.299 77.0546 97.2028 77.0726C96.9632 77.1174 96.7231 77.1597 96.4812 77.1967C96.3619 77.2151 96.2423 77.2313 96.1227 77.2476C95.898 77.2784 95.6727 77.306 95.4465 77.3302C95.3248 77.3433 95.2028 77.356 95.0805 77.3672C94.841 77.3889 94.6003 77.4057 94.359 77.4199C94.2542 77.4262 94.1497 77.4342 94.0443 77.4389C93.6982 77.4546 93.3512 77.4641 93.0024 77.4641C92.6536 77.4641 92.3066 77.4543 91.9605 77.4389C91.8554 77.4342 91.7512 77.4262 91.6467 77.4199C91.4051 77.4057 91.1641 77.3889 90.9239 77.3672C90.802 77.3563 90.6803 77.3433 90.5589 77.3305C90.3324 77.3063 90.1068 77.2787 89.8818 77.2479C89.7625 77.2316 89.6428 77.2154 89.5238 77.197C89.2819 77.16 89.0412 77.1177 88.8014 77.0726C88.7055 77.0546 88.6089 77.0389 88.5136 77.02C88.1796 76.953 87.8477 76.8799 87.5185 76.7979C87.4842 76.7893 87.4504 76.7789 87.4161 76.7704C87.1227 76.696 86.831 76.6158 86.5415 76.5297C86.4367 76.4986 86.333 76.4642 86.2288 76.4317C86.0088 76.3627 85.7897 76.2913 85.5721 76.2158C85.4572 76.1758 85.3427 76.1344 85.2284 76.0926C85.0185 76.0157 84.8097 75.9351 84.6022 75.8519C84.4929 75.8081 84.3837 75.7649 84.2753 75.7193C84.0447 75.6225 83.8167 75.5206 83.5896 75.4161C83.5103 75.3797 83.43 75.3454 83.3513 75.3078C83.0463 75.163 82.7446 75.0117 82.4462 74.853C82.3929 74.8246 82.3411 74.7938 82.2881 74.7651C82.0447 74.633 81.8034 74.4971 81.5651 74.3559C81.4683 74.2984 81.3729 74.2386 81.277 74.1797C81.0825 74.0604 80.8891 73.9387 80.6982 73.8132C80.596 73.7463 80.4948 73.6782 80.3938 73.6095C80.2061 73.4819 80.0204 73.3504 79.8363 73.2166C79.7424 73.1485 79.6483 73.0813 79.5556 73.0117C79.5133 72.98 79.4721 72.9457 79.4301 72.9137L82.8861 71.1769ZM39.7405 119.686C39.3095 119.686 38.9092 119.512 38.6134 119.197C38.3161 118.88 38.1675 118.467 38.1953 118.033C38.1962 118.018 38.1971 118.004 38.1977 117.99L39.2443 94.0572C39.4753 90.504 40.9524 87.246 43.3005 84.7765C43.323 84.7552 43.3467 84.7353 43.3683 84.7128C44.7495 83.2775 46.4253 82.1266 48.255 81.3476C48.2932 81.3314 48.3317 81.3154 48.3702 81.2997C48.6136 81.1984 48.859 81.1022 49.1071 81.0143L52.3613 79.8643V119.686H39.7405ZM53.6954 74.8172L47.67 76.9468C47.4438 77.0268 47.2199 77.1105 46.9985 77.1982C46.928 77.226 46.8593 77.2568 46.7895 77.2852C46.7347 77.3077 46.6802 77.3305 46.6257 77.3536C46.5307 77.3936 46.4345 77.4315 46.3403 77.4729C46.2364 77.5185 46.1348 77.568 46.0318 77.6153C45.9199 77.6669 45.8068 77.7166 45.6964 77.7702C45.5921 77.8208 45.49 77.8747 45.387 77.9268C45.2801 77.981 45.1717 78.0334 45.066 78.0897C44.9689 78.1412 44.8739 78.1962 44.7776 78.2492C44.6687 78.3096 44.5585 78.3683 44.4508 78.4304C44.356 78.4852 44.2637 78.5435 44.1698 78.5998C44.1014 78.641 44.0327 78.6815 43.9649 78.7233L43.9341 56.6815L59.3598 56.6599L59.3823 72.7979L53.7999 74.7707C53.7635 74.7834 53.7306 74.8024 53.6954 74.8172ZM56.6756 119.686V78.3396L70.9464 73.2959L72.5976 81.4001C73.2152 84.4313 75.0713 87.1146 77.6895 88.7619L90.8455 97.0401V119.686H56.6756ZM79.9873 85.1105C78.3613 84.0875 77.2089 82.4209 76.8252 80.5388L75.8058 75.5348C75.8864 75.6026 75.9639 75.6749 76.0451 75.7415C80.8024 79.6515 86.7315 81.7778 93.0033 81.7778C94.7409 81.7778 96.4513 81.6112 98.1188 81.292C102.572 80.4396 106.71 78.4731 110.2 75.5348L109.181 80.5388C108.798 82.4209 107.645 84.0872 106.019 85.1102L93.0033 93.3001L79.9873 85.1105ZM129.33 119.686H95.1602V97.0404L108.316 88.7622C110.935 87.1146 112.791 84.4313 113.408 81.4004L115.06 73.2959L129.33 78.3396V119.686Z" fill="#EA7E01"/>
</svg>
