<svg width="42" height="42" viewBox="0 0 42 42" fill="none" xmlns="http://www.w3.org/2000/svg">
<circle cx="21" cy="21.0044" r="21" fill="#F8D7B0"/>
<path d="M26.9582 15.0463H26.9699M14.6512 9.77185H26.3722C29.6088 9.77185 32.2326 12.3957 32.2326 15.6323V27.3532C32.2326 30.5899 29.6088 33.2137 26.3722 33.2137H14.6512C11.4146 33.2137 8.79077 30.5899 8.79077 27.3532V15.6323C8.79077 12.3957 11.4146 9.77185 14.6512 9.77185ZM25.2001 20.7544C25.3447 21.7298 25.1781 22.7261 24.7239 23.6014C24.2697 24.4767 23.5511 25.1865 22.6703 25.6299C21.7894 26.0732 20.7912 26.2276 19.8176 26.0709C18.844 25.9142 17.9445 25.4546 17.2472 24.7572C16.5499 24.0599 16.0903 23.1605 15.9336 22.1869C15.7769 21.2133 15.9312 20.2151 16.3746 19.3342C16.818 18.4534 17.5278 17.7347 18.4031 17.2806C19.2784 16.8264 20.2747 16.6598 21.2501 16.8044C22.2451 16.952 23.1663 17.4156 23.8776 18.1269C24.5889 18.8382 25.0525 19.7593 25.2001 20.7544Z" stroke="#EA7E01" stroke-width="2" stroke-linecap="round" stroke-linejoin="round"/>
</svg>
