<svg width="127" height="124" viewBox="0 0 127 124" fill="none" xmlns="http://www.w3.org/2000/svg">
<path d="M125.731 74.431L103.964 35.9043C103.302 34.7318 101.816 34.3165 100.642 34.9735L88.3767 41.8366C87.8096 42.1542 87.3921 42.6847 87.2167 43.3106C87.041 43.9363 87.1224 44.6068 87.4422 45.1726L88.9453 47.8329L85.373 48.8659C83.8418 49.3091 82.9131 49.5497 82.402 49.5497C82.3998 49.5497 82.3976 49.5497 82.3956 49.5497C82.0445 49.5483 81.658 49.4124 80.5529 48.9919C80.054 48.8021 79.4329 48.5658 78.666 48.2963L73.7279 46.5721C68.598 44.7822 60.7302 48.4393 60.6537 48.4762L53.019 52.1328L38.0642 47.8021L39.5575 45.1587C39.8774 44.5928 39.9585 43.9227 39.7831 43.2967C39.6076 42.6707 39.1901 42.1403 38.6227 41.8227L26.3578 34.9595C25.1836 34.3033 23.6978 34.7184 23.0354 35.8904L1.26836 74.4171C0.948533 74.9829 0.867416 75.6531 1.04284 76.2791C1.21827 76.9051 1.63582 77.4355 2.20315 77.7531L14.4681 84.6163C14.8458 84.8274 15.2556 84.9278 15.6597 84.9278C16.5129 84.9278 17.3412 84.4807 17.7902 83.6851L19.4038 80.8294L23.7716 84.2698C23.0264 85.3612 22.5543 86.6271 22.4034 87.9819C22.1603 90.1617 22.7777 92.3003 24.1415 94.004C25.4914 95.6901 27.4182 96.7561 29.5719 97.0124C29.3547 99.0814 29.9176 101.232 31.3164 102.979C32.7149 104.726 34.6891 105.747 36.7549 105.991C36.5294 108.15 37.1463 110.266 38.4981 111.955C39.848 113.641 41.7748 114.707 43.9285 114.963C43.7113 117.032 44.274 119.183 45.673 120.93C47.2893 122.949 49.6746 124 52.0812 124C53.8761 124 55.6829 123.415 57.1913 122.211L61.0422 119.129C61.8717 118.465 62.5357 117.67 63.0329 116.799L66.272 119.388C67.7812 120.592 69.5885 121.177 71.3843 121.177C73.7897 121.177 76.1743 120.127 77.7896 118.109C78.6386 117.046 79.1773 115.833 79.4219 114.581C80.2856 114.878 81.185 115.024 82.0814 115.024C84.4868 115.024 86.8717 113.973 88.4874 111.955C89.8867 110.207 90.4506 108.057 90.2351 105.988C92.3903 105.733 94.3185 104.666 95.6691 102.98C97.0682 101.232 97.6308 99.0814 97.4136 97.0127C99.5674 96.7564 101.494 95.6904 102.844 94.0043C104.208 92.3008 104.825 90.1622 104.582 87.9823C104.431 86.6285 103.96 85.3632 103.216 84.2725L107.587 80.8272L109.209 83.6991C109.659 84.4946 110.487 84.9417 111.34 84.9417C111.744 84.9417 112.154 84.8413 112.532 84.6302L124.797 77.767C125.364 77.4494 125.781 76.919 125.957 76.293C126.132 75.667 126.051 74.9969 125.731 74.431ZM14.731 79.1604L6.73297 74.6849L26.0946 40.4156L34.0929 44.8912L14.731 79.1604ZM27.9586 90.9482C27.4118 90.2653 27.1648 89.4043 27.2628 88.5235C27.361 87.6432 27.7915 86.8575 28.4776 86.3099L36.3388 80.0212C37.0219 79.4744 37.8846 79.2271 38.7635 79.3251C39.6438 79.4233 40.4293 79.8541 40.9776 80.5406C41.5244 81.2235 41.7714 82.0848 41.6734 82.9653C41.5752 83.8456 41.1444 84.6312 40.4603 85.1772C40.4574 85.1797 40.455 85.1824 40.452 85.1846L32.5981 91.4667C32.5979 91.4669 32.5976 91.4672 32.5974 91.4674C31.916 92.013 31.0555 92.2593 30.1749 92.1611C29.2931 92.0631 28.5059 91.6321 27.9586 90.9482ZM35.1335 99.9238C33.9976 98.5053 34.2305 96.4248 35.6525 95.2858L47.5206 85.7924C48.9429 84.6573 51.025 84.8894 52.1621 86.3102C52.7087 86.9928 52.9562 87.8541 52.8587 88.7356C52.7614 89.6164 52.3319 90.4024 51.65 90.948L47.6579 94.1411C47.6518 94.146 47.6452 94.1504 47.6391 94.1553C47.6362 94.1577 47.6338 94.1604 47.6308 94.1626L39.7813 100.441C38.3574 101.578 36.2723 101.346 35.1335 99.9238ZM42.3153 108.899C41.7685 108.216 41.5214 107.355 41.6194 106.474C41.7176 105.594 42.1484 104.809 42.8325 104.263C42.8325 104.263 42.8327 104.262 42.833 104.262C42.8335 104.262 42.8337 104.261 42.8342 104.261L50.7049 97.9653C51.3864 97.4236 52.2435 97.1783 53.1204 97.2761C54.0004 97.3743 54.7862 97.805 55.3342 98.4916C55.881 99.1745 56.128 100.036 56.0301 100.916C55.9318 101.797 55.5011 102.582 54.815 103.13L50.8428 106.308C50.831 106.317 50.8188 106.325 50.8071 106.335C50.801 106.34 50.7958 106.345 50.79 106.35L46.954 109.419C46.2726 109.964 45.4126 110.21 44.5315 110.112C43.6498 110.014 42.8625 109.583 42.3153 108.899ZM57.9866 115.312L54.1382 118.392C52.7141 119.529 50.6287 119.297 49.4899 117.875C48.354 116.456 48.5871 114.375 50.0096 113.236C50.0101 113.236 50.0103 113.235 50.0106 113.235L53.8736 110.145C54.5575 109.605 55.4153 109.361 56.29 109.458C57.1711 109.556 57.9573 109.987 58.5056 110.674C58.9502 111.23 59.1824 111.887 59.218 112.549C59.2175 112.611 59.2197 112.673 59.2239 112.735C59.2224 113.702 58.7997 114.661 57.9866 115.312ZM99.0269 90.9482C98.4796 91.6321 97.6924 92.0629 96.8109 92.1616C95.9296 92.2593 95.0696 92.0137 94.3884 91.4679C94.3879 91.4677 94.3876 91.4674 94.3872 91.4669L87.8776 86.2596C86.8228 85.4157 85.2843 85.5877 84.4414 86.6412C83.5979 87.6955 83.7687 89.234 84.823 90.0774L91.3323 95.2848C92.7548 96.4236 92.9879 98.5045 91.852 99.9236C91.3047 100.607 90.5175 101.038 89.636 101.137C88.7542 101.234 87.8949 100.989 87.2123 100.443L80.1554 94.7983C79.1006 93.9547 77.5623 94.1264 76.7192 95.1805C75.876 96.2347 76.047 97.7733 77.1013 98.6167L84.1572 104.26C85.5775 105.397 85.8076 107.478 84.6703 108.899C83.5329 110.32 81.451 110.551 80.0305 109.418L76.6481 106.713C76.5997 106.672 76.553 106.63 76.5034 106.591L72.9714 103.772C72.9328 103.741 72.9006 103.719 72.8717 103.7C71.8216 102.944 70.354 103.135 69.5372 104.156C68.7336 105.161 68.8533 106.604 69.7788 107.467C69.8064 107.497 69.8524 107.539 69.9213 107.594L70.0024 107.658L73.5204 110.472C74.8779 111.623 75.0856 113.659 73.9702 115.056C72.8331 116.476 70.7478 116.705 69.3231 115.567L63.9907 111.306C63.7618 109.998 63.2115 108.728 62.3249 107.62C61.5306 106.625 60.5352 105.848 59.4118 105.323C60.219 104.197 60.7309 102.877 60.889 101.458C61.1318 99.2781 60.5147 97.1395 59.1528 95.4385C58.3592 94.4445 57.3648 93.6671 56.2426 93.142C57.0496 92.0152 57.5612 90.6931 57.7183 89.2724C57.9593 87.0932 57.3416 84.9559 55.979 83.2541C53.6393 80.3313 49.6871 79.4395 46.3936 80.8287C46.1285 79.6188 45.59 78.4785 44.7964 77.4875C43.4345 75.7819 41.4843 74.7086 39.3047 74.4659C37.124 74.2211 34.9859 74.8402 33.2835 76.2036L27.4042 80.9069L21.8373 76.5224L35.5924 52.1765L46.8873 55.4475C42.7665 58.5832 42.3341 62.439 43.4409 65.1153C44.7563 68.2964 48.5324 70.7788 53.7405 70.7783C55.7325 70.7783 57.9351 70.415 60.2882 69.5887C62.095 68.9552 63.6162 68.3214 64.9582 67.7619C69.8296 65.7313 71.471 65.0471 76.2672 68.4846C79.021 70.4627 82.9182 73.6775 86.3569 76.5139C87.9245 77.8069 89.4048 79.028 90.6201 80.0014L98.5099 86.3114C99.194 86.8577 99.6245 87.6432 99.723 88.5235C99.821 89.4043 99.574 90.2656 99.0269 90.9482ZM99.584 80.9096L93.6754 76.184C92.4892 75.2336 91.0218 74.0232 89.4681 72.7417C89.0066 72.3611 88.5365 71.9733 88.0623 71.5829C90.0022 71.3427 91.8843 70.8379 93.5352 70.158C94.7835 69.6439 95.3789 68.2151 94.8646 66.9666C94.3505 65.7181 92.9224 65.1226 91.6732 65.6372C88.2465 67.0487 83.2026 67.4464 80.4229 65.475C79.9694 65.1332 79.5314 64.8092 79.1177 64.5118C72.105 59.4853 68.318 61.0639 63.0772 63.2487C61.7962 63.7825 60.3444 64.3877 58.6695 64.9746C52.7153 67.0658 48.7586 65.1796 47.9592 63.2467C47.2736 61.5887 48.8852 59.5334 52.0656 58.0105L62.7671 52.885C64.9145 51.8542 69.8753 50.4061 72.1158 51.1884L77.05 52.9114C77.7534 53.1585 78.3166 53.3727 78.8138 53.5618C81.8847 54.7302 82.6988 54.7302 86.7317 53.5628L91.4171 52.2078L105.153 76.5198L99.584 80.9096ZM112.268 79.1741L92.9068 44.9048L100.905 40.4293L120.267 74.6985L112.268 79.1741Z" fill="#EA7E01"/>
<path d="M55.1348 23.5897L59.8371 27.5788C60.2805 27.9548 60.8415 28.1591 61.4184 28.1591C61.4873 28.1591 61.5564 28.1562 61.6255 28.1505C62.2742 28.0951 62.8738 27.7838 63.2921 27.2849L72.1568 16.7097C73.0241 15.6752 72.8883 14.133 71.8535 13.2657C70.8193 12.399 69.2774 12.5339 68.4095 13.5689L61.1247 22.2593L58.2976 19.861C57.2677 18.9876 55.725 19.1144 54.8518 20.144C53.9786 21.1735 54.1052 22.7162 55.1348 23.5897Z" fill="#EA7E01"/>
<path d="M63.4965 40.8534C74.7619 40.8534 83.9269 31.6885 83.9269 20.4233C83.9269 9.16177 74.7619 0 63.4965 0C52.235 0 43.0732 9.16177 43.0732 20.4233C43.0732 31.6887 52.235 40.8534 63.4965 40.8534ZM63.4965 4.88947C72.0658 4.88947 79.0374 11.8582 79.0374 20.4233C79.0374 28.9923 72.0658 35.9642 63.4965 35.9642C54.9312 35.9642 47.9627 28.9926 47.9627 20.4233C47.9627 11.8582 54.9309 4.88947 63.4965 4.88947Z" fill="#EA7E01"/>
</svg>
