<svg width="43" height="42" viewBox="0 0 43 42" fill="none" xmlns="http://www.w3.org/2000/svg">
<ellipse cx="21.5" cy="21.0044" rx="21.5" ry="21" fill="#F8D7B0"/>
<path fill-rule="evenodd" clip-rule="evenodd" d="M34.145 20.5868C34.145 14.075 28.7393 8.79504 22.0725 8.79504C15.4057 8.79504 10 14.075 10 20.5868C10 26.4721 14.414 31.3504 20.1862 32.2359V23.9964H17.1201V20.5868H20.1862V17.9889C20.1862 15.0341 21.989 13.4007 24.7462 13.4007C26.0672 13.4007 27.4491 13.6312 27.4491 13.6312V16.5334H25.926C24.4272 16.5334 23.9583 17.442 23.9583 18.3758V20.5868H27.3062L26.7716 23.9964H23.9588V32.2369C29.731 31.352 34.145 26.4737 34.145 20.5868Z" fill="#EA7E01"/>
</svg>
