<svg width="125" height="124" viewBox="0 0 125 124" fill="none" xmlns="http://www.w3.org/2000/svg">
<path d="M97.6375 102.146C95.9809 101.058 93.1579 99.8492 89.1159 100.27L67.6124 102.502C68.2029 98.3302 65.5405 93.1848 59.4825 90.8745L53.0508 88.4169C47.8775 86.4387 41.9803 86.6189 34.5137 86.8468C31.8353 86.9287 28.7996 87.0214 25.5215 87.0214H21.512V85.8681C21.512 82.7983 18.9159 80.3005 15.7248 80.3005H6.28527C3.09413 80.3005 0.498047 82.7983 0.498047 85.8681V116.967C0.498047 120.033 3.09413 122.528 6.28527 122.528H15.7248C18.9157 122.528 21.512 120.033 21.512 116.967V116.917L38.6184 123.525C38.6688 123.544 38.7194 123.562 38.771 123.578C39.7391 123.88 41.0837 124 42.6141 124C46.403 124 51.3276 123.262 54.4761 122.711L95.226 115.599C100.285 114.719 102.113 111.188 101.682 108.079C101.363 105.787 99.8894 103.624 97.6375 102.146ZM16.6652 116.967C16.6652 117.304 16.2789 117.681 15.7248 117.681H6.28527C5.73089 117.681 5.34483 117.304 5.34483 116.967V85.8681C5.34483 85.5271 5.73113 85.1473 6.28527 85.1473H15.7248C16.2789 85.1473 16.6652 85.5271 16.6652 85.8681V116.967ZM94.3936 110.824L53.6415 117.937C46.4134 119.202 41.68 119.358 40.2746 118.969L21.512 111.722V91.8685H25.5213C28.8735 91.8685 31.9484 91.7745 34.6615 91.6917C41.8558 91.4715 47.0538 91.3131 51.3201 92.9445L57.7539 95.4028C61.9243 96.9933 63.3108 100.421 62.7085 102.284C62.1549 103.997 59.9177 104.509 56.7251 103.656L40.9837 99.4407C39.6906 99.0946 38.3622 99.8618 38.0159 101.155C37.6698 102.447 38.4373 103.776 39.7299 104.123L55.4725 108.338C59.2904 109.358 62.1379 108.897 64.1144 107.738L89.6168 105.091C93.9639 104.639 96.628 106.923 96.8809 108.746C97.0652 110.074 95.6304 110.609 94.3936 110.824Z" fill="#EA7E01"/>
<path d="M122.078 35.3894H117.429C116.507 31.7577 115.074 28.3018 113.152 25.0741L116.439 21.7873C116.894 21.3329 117.149 20.7163 117.149 20.0735C117.149 19.4307 116.894 18.8144 116.439 18.3598L106.135 8.05538C105.68 7.60102 105.064 7.34551 104.421 7.34551C103.779 7.34551 103.162 7.60078 102.708 8.05538L99.4207 11.3422C96.1945 9.42159 92.741 7.98926 89.1122 7.0665V2.42339C89.1122 1.08503 88.0272 0 86.6888 0H72.1143C70.7759 0 69.6909 1.08503 69.6909 2.42339V7.06601C66.0592 7.98829 62.6033 9.42087 59.3756 11.3424L56.0888 8.05562C55.6345 7.60102 55.0178 7.34575 54.375 7.34575C53.7323 7.34575 53.1159 7.60102 52.6613 8.05562L42.3569 18.36C41.9025 18.8146 41.647 19.431 41.647 20.0738C41.647 20.7166 41.9023 21.3329 42.3569 21.7875L45.6437 25.0744C43.7224 28.3021 42.2896 31.7579 41.3673 35.3896H36.7247C35.3863 35.3896 34.3013 36.4747 34.3013 37.813V52.3876C34.3013 53.7259 35.3863 54.8109 36.7247 54.8109H41.3678C42.2903 58.4397 43.7226 61.8929 45.6435 65.1195L42.3566 68.4063C41.902 68.8606 41.6468 69.4773 41.6468 70.12C41.6468 70.7628 41.902 71.3792 42.3566 71.8338L52.661 82.1382C53.1156 82.5925 53.732 82.8481 54.3748 82.8481C55.0176 82.8481 55.634 82.5928 56.0886 82.1382L59.3754 78.8511C62.6031 80.7725 66.059 82.2053 69.6907 83.1276V87.777C69.6907 89.1153 70.7757 90.2004 72.1141 90.2004H86.6886C88.0269 90.2004 89.112 89.1153 89.112 87.777V83.1271C92.7492 82.2033 96.2034 80.771 99.4217 78.8523L102.707 82.1382C103.162 82.5925 103.778 82.8481 104.421 82.8481C105.064 82.8481 105.68 82.5928 106.135 82.1382L116.439 71.8338C116.894 71.3792 117.149 70.7628 117.149 70.12C117.149 69.4773 116.894 68.8609 116.439 68.4063L113.152 65.1195C115.073 61.8932 116.505 58.4397 117.428 54.8109H122.078C123.417 54.8109 124.502 53.7259 124.502 52.3876V37.813C124.502 36.4744 123.417 35.3894 122.078 35.3894ZM119.655 49.9639H115.495C114.34 49.9639 113.346 50.7782 113.119 51.9099C112.24 56.2837 110.536 60.3926 108.054 64.1226C107.414 65.0839 107.541 66.3626 108.357 67.1788L111.298 70.1196L104.421 76.9967L101.481 74.0557C100.664 73.2388 99.3832 73.1121 98.4219 73.7534C94.7076 76.2318 90.5995 77.9354 86.2117 78.817C85.0799 79.0442 84.2657 80.0384 84.2657 81.1929V85.3531H74.5379V81.1929C74.5379 80.0384 73.7232 79.0439 72.5912 78.8167C68.214 77.9388 64.103 76.2347 60.3722 73.752C59.4112 73.1124 58.1324 73.2395 57.316 74.0557L54.3753 76.9967L47.4982 70.1196L50.4391 67.1788C51.2556 66.3624 51.3825 65.0836 50.7429 64.1226C48.2606 60.3928 46.5565 56.2837 45.6779 51.9099C45.4504 50.7782 44.4562 49.9639 43.3019 49.9639H39.1488V40.2362H43.3019C44.4565 40.2362 45.4509 39.4214 45.6781 38.2894C46.556 33.9123 48.2601 29.8013 50.7429 26.0705C51.3825 25.1095 51.2553 23.8307 50.4391 23.0143L47.4982 20.0735L54.3753 13.1964L57.316 16.1374C58.1324 16.9536 59.4112 17.0812 60.3722 16.4411C64.103 13.9584 68.214 12.2543 72.5912 11.3763C73.7232 11.1492 74.5379 10.155 74.5379 9.00017V4.84703H84.2657V9.00017C84.2657 10.1545 85.0799 11.1487 86.2117 11.3761C90.5855 12.2545 94.6943 13.9589 98.4243 16.4411C99.3856 17.081 100.664 16.9536 101.481 16.1374L104.421 13.1964L111.298 20.0735L108.357 23.0143C107.541 23.8307 107.414 25.1095 108.054 26.0705C110.536 29.8013 112.241 33.9123 113.118 38.2894C113.346 39.4214 114.34 40.2362 115.495 40.2362H119.655V49.9639Z" fill="#EA7E01"/>
<path d="M79.3982 18.8174C64.9077 18.8174 53.1187 30.6064 53.1187 45.0969C53.1187 59.5912 64.9077 71.3832 79.3982 71.3832C93.8925 71.3832 105.684 59.5912 105.684 45.0969C105.684 30.6061 93.8923 18.8174 79.3982 18.8174ZM67.1988 62.7141V62.1289C67.1988 57.8787 69.4965 54.0106 73.1522 51.9372C74.9491 53.1142 77.0942 53.8018 79.3979 53.8018C81.7031 53.8018 83.8494 53.1137 85.6468 51.9352C89.3005 54.0069 91.597 57.8762 91.597 62.1289V62.7167C88.1317 65.1232 83.927 66.5361 79.3979 66.5361C74.8686 66.5361 70.6639 65.1222 67.1988 62.7141ZM79.3982 48.9548C75.7679 48.9548 72.8146 46.0015 72.8146 42.3712C72.8146 38.741 75.7679 35.7876 79.3982 35.7876C83.0284 35.7876 85.9817 38.741 85.9817 42.3712C85.9817 46.0015 83.0284 48.9548 79.3982 48.9548ZM96.058 58.5745C95.1463 54.4204 92.6619 50.7674 89.1133 48.3839C90.1991 46.6358 90.8283 44.5759 90.8283 42.3712C90.8283 36.0686 85.7005 30.9409 79.3979 30.9409C73.0953 30.9409 67.9676 36.0686 67.9676 42.3712C67.9676 44.5774 68.5975 46.6382 69.6845 48.3868C66.1368 50.77 63.6526 54.4199 62.7396 58.5696C59.756 54.8854 57.9654 50.1965 57.9654 45.0966C57.9654 33.2785 67.5801 23.6641 79.3979 23.6641C91.2197 23.6641 100.837 33.2788 100.837 45.0966C100.837 50.1989 99.0449 54.8895 96.058 58.5745Z" fill="#EA7E01"/>
</svg>
