<svg width="109" height="124" viewBox="0 0 109 124" fill="none" xmlns="http://www.w3.org/2000/svg">
<path d="M105.671 59.2439H103.021V55.7293C103.021 47.3306 98.5942 39.6756 91.5121 35.4259C93.4416 32.7865 94.584 29.5373 94.584 26.0248C94.584 17.224 87.4208 10.0639 78.6163 10.0639C76.2247 10.0639 73.9193 10.5832 71.8115 11.5805C68.9949 4.78976 62.2974 0 54.4999 0C46.7017 0 40.0037 4.79073 37.1873 11.5824C35.0756 10.5836 32.7681 10.0639 30.3767 10.0639C21.5758 10.0639 14.4158 17.224 14.4158 26.0248C14.4158 29.5375 15.5579 32.787 17.487 35.4264C10.4054 39.676 5.97888 47.3309 5.97888 55.729V59.2437H3.3291C1.99077 59.2437 0.905762 60.3287 0.905762 61.667V79.1382C0.905762 80.4766 1.99077 81.5616 3.3291 81.5616H9.27531C10.3964 86.1256 12.1922 90.4581 14.632 94.485L10.4223 98.6998C9.47681 99.6465 9.47754 101.181 10.4238 102.127L22.7805 114.476C23.7272 115.422 25.2607 115.422 26.2072 114.476L30.4147 110.268C34.4445 112.712 38.7763 114.509 43.3377 115.63V121.577C43.3377 122.915 44.4227 124 45.761 124H63.239C64.5773 124 65.6623 122.915 65.6623 121.577V115.63C70.2252 114.508 74.5574 112.711 78.5853 110.268L82.7928 114.476C83.7391 115.422 85.2728 115.422 86.2196 114.476L98.5763 102.127C99.5227 101.181 99.5234 99.6467 98.5777 98.6998L94.368 94.485C96.8078 90.4581 98.6036 86.1256 99.7247 81.5616H105.671C107.009 81.5616 108.094 80.4766 108.094 79.1382V61.667C108.094 60.3289 107.009 59.2439 105.671 59.2439ZM98.1742 55.7293V59.2439H83.4012V54.5142C83.4012 50.0327 82.3315 45.7298 80.3901 41.8918C83.1864 41.5813 85.7654 40.5453 87.9379 38.9773C94.1999 42.2028 98.1742 48.6341 98.1742 55.7293ZM75.3896 70.4064C75.3896 81.9212 66.0186 91.2893 54.4999 91.2893C42.9812 91.2893 33.6102 81.9212 33.6102 70.4064C33.6102 68.2434 33.9427 66.1266 34.5891 64.0908H74.4109C75.0573 66.1264 75.3896 68.2431 75.3896 70.4064ZM30.4455 59.2439V54.5142C30.4455 45.6889 35.4556 37.6928 43.3222 33.7591C46.4447 36.088 50.3139 37.4687 54.4999 37.4687C58.6859 37.4687 62.5553 36.0883 65.6776 33.7591C73.5441 37.6925 78.5543 45.6886 78.5543 54.5142V59.2439H30.4455ZM78.6163 14.9106C84.7485 14.9106 89.7373 19.8963 89.7373 26.0246C89.7373 32.1568 84.7485 37.1457 78.6163 37.1457C78.1786 37.1457 77.7335 37.1151 77.2864 37.0609C75.1084 34.3305 72.4124 31.9926 69.2979 30.2028C71.7619 27.0309 73.2344 23.0525 73.2344 18.7342C73.2344 17.9374 73.1787 17.1542 73.0816 16.3833C74.7546 15.417 76.6427 14.9106 78.6163 14.9106ZM54.4999 4.84667C62.1576 4.84667 68.3875 11.0765 68.3875 18.7342C68.3875 26.3918 62.1576 32.6218 54.4999 32.6218C46.8421 32.6218 40.6123 26.392 40.6123 18.7342C40.6123 11.0767 46.8421 4.84667 54.4999 4.84667ZM30.3767 14.9106C32.3493 14.9106 34.2399 15.4175 35.918 16.3853C35.8211 17.1554 35.7654 17.9384 35.7654 18.7342C35.7654 23.0525 37.2379 27.0309 39.7019 30.2028C36.5874 31.9926 33.8913 34.3305 31.7133 37.0609C31.2648 37.1151 30.8175 37.1459 30.3767 37.1459C24.2481 37.1459 19.2624 32.1571 19.2624 26.0248C19.2624 19.8965 24.2481 14.9106 30.3767 14.9106ZM10.8256 55.7293C10.8256 48.6348 14.7991 42.204 21.0602 38.9781C23.2329 40.5465 25.8124 41.5828 28.6095 41.8925C26.6683 45.7303 25.5986 50.033 25.5986 54.5142V59.2439H10.8256V55.7293ZM103.247 76.7151H97.7831C96.6288 76.7151 95.6346 77.5294 95.4072 78.6609C94.3396 83.973 92.2728 88.9597 89.2641 93.4826C88.6252 94.4431 88.7519 95.7209 89.5671 96.5373L93.4363 100.411L84.5066 109.336L80.6386 105.468C79.8221 104.652 78.5436 104.525 77.5821 105.164C73.0576 108.176 68.0709 110.245 62.7607 111.314C61.6292 111.541 60.8152 112.535 60.8152 113.689V119.154H48.1839V113.689C48.1839 112.535 47.3696 111.541 46.2381 111.313C40.931 110.247 35.9446 108.178 31.4174 105.164C30.4564 104.524 29.1771 104.651 28.361 105.468L24.493 109.336L15.5632 100.411L19.4325 96.5373C20.2477 95.7209 20.3746 94.4431 19.7354 93.4826C16.7267 88.9597 14.6599 83.973 13.5923 78.6609C13.3649 77.5291 12.3707 76.7151 11.2165 76.7151H5.75244V64.0906H29.547C29.0272 66.1446 28.7635 68.2577 28.7635 70.4061C28.7635 84.5935 40.3089 96.1357 54.4999 96.1357C68.6909 96.1357 80.2363 84.5935 80.2363 70.4061C80.2363 68.2574 79.9725 66.1446 79.4528 64.0906H103.247V76.7151Z" fill="#EA7E01"/>
</svg>
