<svg width="64" height="65" viewBox="0 0 64 65" fill="none" xmlns="http://www.w3.org/2000/svg">
<path d="M53.7021 27.7881H57.1138V31.5381H53.7021V27.7881Z" fill="#EA7E01"/>
<path d="M58.5244 27.7881H64V31.5381H58.5244V27.7881Z" fill="#EA7E01"/>
<path d="M52.5566 22.7822L55.8057 21.7417L56.9497 25.313L53.7002 26.3535L52.5566 22.7822Z" fill="#EA7E01"/>
<path d="M57.1436 21.3135L62.3579 19.6431L63.5015 23.2144L58.2876 24.8843L57.1436 21.3135Z" fill="#EA7E01"/>
<path d="M52.5557 36.5405L53.6997 32.9688L56.9487 34.0093L55.8052 37.5811L52.5557 36.5405Z" fill="#EA7E01"/>
<path d="M57.1504 38.0127L58.2944 34.4414L63.5088 36.1113L62.3652 39.6826L57.1504 38.0127Z" fill="#EA7E01"/>
<path d="M46.8765 31.5703H51.8701V27.8203H46.8765V21.6543H39.2139V37.6724H46.8765V31.5703Z" fill="#EA7E01"/>
<path d="M14.5 54.9932V54.3975H18.2192L21.1465 46.0347H29.9639L32.8242 37.6724H35.4639V21.6543H24.146V19.4053C27.5308 18.5879 30.0532 15.5356 30.0532 11.9033V11.0415H14.4888V11.9033C14.4888 15.5356 17.0112 18.5879 20.396 19.4053V21.6543H6.9917V24.1562H0V35.2349H6.9917V37.6724H10.7505L4.89551 54.3975H10.75V54.9932C10.75 60.2354 15.0146 64.5 20.2568 64.5H64V60.75H20.2568C17.0825 60.75 14.5 58.1675 14.5 54.9932ZM24.0737 37.6724H28.8613L27.2832 42.2847H22.4595L24.0737 37.6724Z" fill="#EA7E01"/>
<path d="M14.4888 0.5H30.0532V7.2915H14.4888V0.5Z" fill="#EA7E01"/>
</svg>
