<svg width="41" height="41" viewBox="0 0 41 41" fill="none" xmlns="http://www.w3.org/2000/svg">
<path d="M20.5 40.9558C31.5457 40.9558 40.5 32.0015 40.5 20.9558C40.5 9.91012 31.5457 0.955811 20.5 0.955811C9.4543 0.955811 0.5 9.91012 0.5 20.9558C0.5 32.0015 9.4543 40.9558 20.5 40.9558Z" fill="#F0F0F0"/>
<path d="M40.4999 20.9559C40.4999 13.0267 35.8855 6.17543 29.1956 2.94043V38.9713C35.8855 35.7364 40.4999 28.8851 40.4999 20.9559Z" fill="#D80027"/>
<path d="M0.5 20.9559C0.5 28.8851 5.11445 35.7364 11.8044 38.9714V2.94043C5.11445 6.17543 0.5 13.0267 0.5 20.9559Z" fill="#6DA544"/>
<path d="M15.2826 20.9559C15.2826 23.8374 17.6185 26.1734 20.5 26.1734C23.3815 26.1734 25.7174 23.8374 25.7174 20.9559V19.2168H15.2826V20.9559Z" fill="#6DA544"/>
<path d="M27.4565 17.4775H22.239C22.239 16.5171 21.4604 15.7384 20.4999 15.7384C19.5394 15.7384 18.7608 16.5171 18.7608 17.4775H13.5433C13.5433 18.4381 14.38 19.2167 15.3404 19.2167H15.2825C15.2825 20.1772 16.0611 20.9558 17.0216 20.9558C17.0216 21.9164 17.8002 22.695 18.7608 22.695H22.239C23.1996 22.695 23.9782 21.9164 23.9782 20.9558C24.9387 20.9558 25.7173 20.1772 25.7173 19.2167H25.6594C26.6199 19.2167 27.4565 18.4381 27.4565 17.4775Z" fill="#FF9811"/>
</svg>
