<svg width="41" height="41" viewBox="0 0 41 41" fill="none" xmlns="http://www.w3.org/2000/svg">
<path d="M20.8333 40.9558C31.8789 40.9558 40.8333 32.0015 40.8333 20.9558C40.8333 9.91012 31.8789 0.955811 20.8333 0.955811C9.78756 0.955811 0.833252 9.91012 0.833252 20.9558C0.833252 32.0015 9.78756 40.9558 20.8333 40.9558Z" fill="#F0F0F0"/>
<path d="M40.8332 20.9559C40.8332 13.0267 36.2187 6.17543 29.5288 2.94043V38.9713C36.2187 35.7364 40.8332 28.8851 40.8332 20.9559Z" fill="#D80027"/>
<path d="M0.833252 20.9559C0.833252 28.8851 5.44771 35.7364 12.1376 38.9714V2.94043C5.44771 6.17543 0.833252 13.0267 0.833252 20.9559Z" fill="#6DA544"/>
<path d="M15.6158 20.9559C15.6158 23.8374 17.9518 26.1734 20.8333 26.1734C23.7148 26.1734 26.0507 23.8374 26.0507 20.9559V19.2168H15.6158V20.9559Z" fill="#6DA544"/>
<path d="M27.7897 17.4775H22.5723C22.5723 16.5171 21.7936 15.7384 20.8331 15.7384C19.8727 15.7384 19.094 16.5171 19.094 17.4775H13.8766C13.8766 18.4381 14.7132 19.2167 15.6736 19.2167H15.6157C15.6157 20.1772 16.3943 20.9558 17.3549 20.9558C17.3549 21.9164 18.1335 22.695 19.094 22.695H22.5723C23.5328 22.695 24.3114 21.9164 24.3114 20.9558C25.272 20.9558 26.0506 20.1772 26.0506 19.2167H25.9926C26.9531 19.2167 27.7897 18.4381 27.7897 17.4775Z" fill="#FF9811"/>
</svg>
