<svg width="127" height="147" viewBox="0 0 127 147" fill="none" xmlns="http://www.w3.org/2000/svg">
<g clip-path="url(#clip0_2039_1825)">
<path d="M63.3 110.049V102.799L31.67 121.039V128.329L63.3 110.049Z" fill="white"/>
<path d="M63.3 95.4394V88.1294L19.01 113.689V121.009L63.3 95.4394Z" fill="white"/>
<path d="M63.3 80.8094V73.5194L6.34998 106.409V113.689L63.3 80.8094Z" fill="white"/>
<path d="M63.3 36.9594V0.439392L0 36.9594L31.67 55.2394L63.3 36.9594Z" fill="white"/>
<path d="M0 36.9594V110.049L6.35 113.689V40.6094L0 36.9594Z" fill="white"/>
<path d="M12.66 44.2794V117.369L19.01 121.009V47.9294L12.66 44.2794Z" fill="white"/>
<path d="M25.34 51.5794V124.669L31.69 128.309V55.2294L25.34 51.5794Z" fill="white"/>
<path d="M94.89 18.6894V91.7794L101.24 95.4194V22.3394L94.89 18.6894Z" fill="white"/>
<path d="M107.55 26.0094V99.0994L113.9 102.739V29.6494L107.55 26.0094Z" fill="white"/>
<path d="M120.23 33.3094V106.399L126.58 110.039V36.9594L120.23 33.3094Z" fill="white"/>
<path d="M63.3 36.9594V44.2494L101.25 22.3294L94.9 18.6794L63.3 36.9594Z" fill="white"/>
<path d="M63.3 51.5694V58.8894L113.91 29.6494L107.6 25.9994L63.3 51.5694Z" fill="white"/>
<path d="M63.3 66.1994V73.5194L126.57 36.9594L120.29 33.3194L63.3 66.1994Z" fill="white"/>
<path d="M94.97 91.7694L63.3 110.049V146.569L126.57 110.049L94.97 91.7694Z" fill="white"/>
</g>
<defs>
<clipPath id="clip0_2039_1825">
<rect width="126.58" height="146.13" fill="white" transform="translate(0 0.439392)"/>
</clipPath>
</defs>
</svg>
