<svg width="124" height="124" viewBox="0 0 124 124" fill="none" xmlns="http://www.w3.org/2000/svg">
<path d="M118.35 77.1834L121.898 73.6364C124.131 71.4027 124.131 67.7687 121.898 65.5349C120.816 64.4535 119.378 63.8575 117.847 63.8575C116.698 63.8575 115.601 64.1934 114.668 64.8187L113.92 62.3097L117.761 58.4685C119.994 56.2347 119.994 52.6007 117.761 50.3679C115.705 48.3111 112.463 48.1531 110.218 49.8835L105.668 34.6058C107.485 32.8555 109.226 31.1525 110.866 29.512C115.594 24.7834 119.438 19.7794 121.691 15.4198C125.497 8.05151 123.904 4.11288 121.897 2.10619C119.891 0.0994999 115.953 -1.49279 108.583 2.31338C104.225 4.56511 99.2198 8.40914 94.4921 13.1378C92.8516 14.7783 91.1477 16.5182 89.3983 18.3357L74.1197 13.7849C75.8501 11.5407 75.6921 8.29939 73.6362 6.24256C71.4025 4.00975 67.7685 4.0088 65.5357 6.24256L61.6945 10.0837L59.1845 9.33632C59.8098 8.40251 60.1457 7.30503 60.1457 6.15646C60.1457 4.62661 59.5497 3.18759 58.4683 2.10619C56.2355 -0.127565 52.6005 -0.127565 50.3677 2.10619L46.8208 5.65313L28.7417 0.267907C28.0974 0.0767934 27.401 0.252769 26.927 0.727713L22.2731 5.3816C21.4917 6.16214 21.5948 7.49709 22.486 8.14896L68.1015 41.5379C57.8164 53.1343 47.9088 64.7449 40.9142 73.0404L27.4966 67.8794C26.822 67.6201 26.0585 67.7819 25.5476 68.2928L20.0318 73.8086C19.3185 74.5229 19.3185 75.68 20.0318 76.3934L47.6098 103.971C48.3137 104.676 49.4907 104.676 50.1955 103.971L55.7104 98.4565C56.2213 97.9456 56.384 97.1812 56.1238 96.5066L50.9638 83.0899C59.2592 76.0954 70.8689 66.1877 82.4662 55.9017L86.0898 60.8536C86.7331 61.7325 88.0378 61.8461 88.8269 61.0967C89.4844 60.4723 89.5752 59.425 89.0407 58.6946L85.2099 53.4607C91.2744 48.0481 97.2633 42.5872 102.697 37.4413L119.921 95.2625L117.545 97.6372L93.8724 65.2956C93.2764 64.481 92.1326 64.3041 91.318 64.9001C90.5024 65.4971 90.3255 66.6409 90.9225 67.4555L115.855 101.518C116.507 102.409 117.842 102.512 118.623 101.731L123.276 97.0771C123.751 96.6031 123.927 95.9058 123.736 95.2625L118.35 77.1834ZM68.1214 8.82826C68.9199 8.02975 70.2529 8.02975 71.0515 8.82826C71.8594 9.63623 71.8594 10.9504 71.0515 11.7583L70.1943 12.6155L65.6785 11.2702L68.1214 8.82826ZM52.9534 4.69189C53.7604 3.88392 55.0755 3.88392 55.8835 4.69189C56.6915 5.49986 56.6915 6.814 55.8835 7.62198L55.3196 8.18491L50.8048 6.8405L52.9534 4.69189ZM26.366 6.45827L28.7417 4.08355L86.5628 21.3064C81.417 26.7409 75.9561 32.7297 70.5424 38.7942L26.366 6.45827ZM27.2932 71.7187L38.4241 75.9998C35.6321 79.3244 33.4911 81.8969 32.2281 83.4191L23.9099 75.101L27.2932 71.7187ZM34.8251 86.0162C41.1981 78.3272 74.8841 37.9162 97.0778 15.7225C101.481 11.3184 106.287 7.61535 110.262 5.56231C113.246 4.02016 117.238 2.61803 119.312 4.69189C121.386 6.76575 119.983 10.7583 118.442 13.7423C116.389 17.7169 112.685 22.5222 108.281 26.9263C86.0888 49.1181 45.6769 82.8051 37.9879 89.179L34.8251 86.0162ZM52.2855 96.711L48.9031 100.093L40.585 91.7751C42.1063 90.513 44.6797 88.372 48.0043 85.5801L52.2855 96.711ZM116.382 68.1206C117.19 67.3127 118.504 67.3127 119.312 68.1206C120.12 68.9286 120.12 70.2428 119.312 71.0507L117.164 73.1993L115.818 68.6845L116.382 68.1206ZM112.246 52.9527C113.053 52.1447 114.368 52.1457 115.176 52.9527C115.974 53.7512 115.974 55.0843 115.176 55.8828L112.733 58.3256L111.388 53.8099L112.246 52.9527Z" fill="#EA7E01"/>
<path d="M109.734 105.287L94.1334 120.887C93.4683 121.553 93.4238 122.652 94.036 123.368C94.72 124.166 95.9755 124.216 96.7191 123.473L112.319 107.872C113.034 107.158 113.034 106.001 112.319 105.287C111.606 104.573 110.448 104.573 109.734 105.287Z" fill="#EA7E01"/>
<path d="M104.519 100.072C105.233 99.3582 105.233 98.2001 104.519 97.4868C103.806 96.7725 102.648 96.7725 101.934 97.4868L92.1837 107.236C91.5186 107.902 91.4741 109.002 92.0862 109.717C92.7703 110.516 94.0257 110.566 94.7694 109.822L104.519 100.072Z" fill="#EA7E01"/>
<path d="M98.669 90.3221C99.3833 89.6078 99.3833 88.4498 98.669 87.7364C97.9547 87.0221 96.7976 87.0221 96.0833 87.7364L89.2581 94.5616C88.593 95.2267 88.5485 96.327 89.1616 97.0423C89.8447 97.8408 91.1002 97.8909 91.8438 97.1473L98.669 90.3221Z" fill="#EA7E01"/>
<path d="M18.7174 12.6594C18.003 11.9461 16.845 11.9461 16.1317 12.6594L0.531337 28.2607C-0.182972 28.974 -0.182972 30.1321 0.531337 30.8454C1.23524 31.5493 2.41219 31.5493 3.11704 30.8454L18.7174 15.2451C19.4307 14.5308 19.4307 13.3737 18.7174 12.6594Z" fill="#EA7E01"/>
<path d="M26.5172 20.4599C25.8029 19.7456 24.6458 19.7456 23.9324 20.4599L14.1819 30.2105C13.5158 30.8756 13.4723 31.9749 14.0844 32.6902C14.7684 33.4887 16.023 33.5389 16.7666 32.7952L26.5172 23.0456C27.2315 22.3313 27.2315 21.1733 26.5172 20.4599Z" fill="#EA7E01"/>
<path d="M26.8567 35.7206C27.5616 36.4245 28.7376 36.4245 29.4424 35.7206L36.2676 28.8954C36.981 28.1811 36.981 27.024 36.2676 26.3097C35.5533 25.5963 34.3962 25.5963 33.6819 26.3097L26.8567 33.1349C26.1434 33.8492 26.1434 35.0063 26.8567 35.7206Z" fill="#EA7E01"/>
</svg>
