<svg width="42" height="41" viewBox="0 0 42 41" fill="none" xmlns="http://www.w3.org/2000/svg">
<path d="M39.5 2.00439L27.1667 14.3377M27.1667 14.3377V4.05995M27.1667 14.3377H37.4444M6.61111 2.00439C5.52078 2.00439 4.4751 2.43753 3.70412 3.20851C2.93313 3.97949 2.5 5.02517 2.5 6.11551V8.17106C2.5 25.1993 16.3051 39.0044 33.3333 39.0044H35.3889C36.4792 39.0044 37.5249 38.5713 38.2959 37.8003C39.0669 37.0293 39.5 35.9836 39.5 34.8933V28.1511C39.4997 27.7198 39.3637 27.2996 39.1114 26.9499C38.8591 26.6002 38.5031 26.3387 38.094 26.2024L28.8584 23.1232C28.389 22.9672 27.8791 22.9856 27.4223 23.1751C26.9654 23.3647 26.5922 23.7126 26.3712 24.1551L24.0484 28.7945C19.0149 26.5198 14.9836 22.4878 12.7099 17.4539L17.3493 15.1353C17.7918 14.9142 18.1397 14.541 18.3293 14.0842C18.5188 13.6273 18.5372 13.1174 18.3812 12.6481L15.302 3.40834C15.1653 2.99924 14.9033 2.64353 14.5532 2.39156C14.2031 2.1396 13.7826 2.00415 13.3513 2.00439H6.61111Z" stroke="#EA7E01" stroke-width="4" stroke-linecap="round" stroke-linejoin="round"/>
</svg>
