<svg width="64" height="64" viewBox="0 0 64 64" fill="none" xmlns="http://www.w3.org/2000/svg">
<path d="M32.1478 42.7605C30.4362 42.7605 28.7239 42.1708 27.3193 40.9892C27.2957 40.9692 17.4626 32.0539 17.4626 32.0539C16.5241 31.2873 15.1758 31.3033 14.2541 32.0949L4.09927 40.5465C3.03802 41.4297 1.46165 41.2855 0.578529 40.2241C-0.304718 39.1628 -0.160468 37.5865 0.900777 36.7032L11.0484 28.2578C13.8466 25.898 17.9091 25.8949 20.7112 28.2521C20.7348 28.272 30.5679 37.1875 30.5679 37.1875C31.501 37.949 32.8259 37.9408 33.7495 37.169C33.7495 37.169 43.2277 28.2273 43.2547 28.2039C46.0656 25.7709 50.1662 25.747 53.0052 28.1474L63.1163 36.7176C64.1695 37.6104 64.2997 39.188 63.4069 40.2411C62.514 41.2943 60.9364 41.4245 59.8834 40.5317L49.7747 31.9635C48.8421 31.1749 47.4966 31.1734 46.5611 31.9554C46.5611 31.9554 37.0829 40.8971 37.0559 40.9205C35.6398 42.1463 33.8941 42.7603 32.1478 42.7605ZM46.7499 61.4998V48.5393C46.8216 44.2659 42.0672 41.858 38.8511 44.7681C38.6981 44.8916 34.5479 48.2804 34.3849 48.4156C33.122 49.5088 31.2775 49.5217 29.9994 48.4464C29.9679 48.4199 29.9357 48.3942 29.903 48.3693L25.0613 44.6888C21.8179 41.9173 17.2062 44.3367 17.2677 48.5437L17.2501 61.4965C17.2492 62.1601 17.5122 62.7969 17.9812 63.2665C18.4501 63.7361 19.0866 64 19.7501 64H44.25C45.6305 63.9997 46.7499 62.8805 46.7499 61.4998ZM33.7654 30.2615L40.6712 24.2563C42.31 22.8313 43.2499 20.7684 43.2499 18.5968V14.9999C47.3853 14.9999 50.7498 11.6355 50.7498 7.49997V4.99998H61.4998C62.8805 4.99998 63.9998 3.88073 63.9998 2.49999C63.9998 1.11925 62.8805 0 61.4998 0H2.50002C1.11928 0 3.09955e-05 1.11925 3.09955e-05 2.49999C3.09955e-05 3.88073 1.11928 4.99998 2.50002 4.99998H13.25V7.49997C13.25 11.6355 16.6145 14.9999 20.75 14.9999C20.7528 18.6546 20.3162 21.6198 23.4091 24.2824L30.5113 30.2844C31.4528 31.0803 32.8344 31.0708 33.7654 30.2615Z" fill="#EA7E01"/>
</svg>
