<svg width="570" height="149" viewBox="0 0 570 149" fill="none" xmlns="http://www.w3.org/2000/svg">
<path d="M176.74 80.26V61.98H220.14C233.37 61.98 241.24 53.66 241.24 41.47C241.24 29.28 233.36 21.11 220.14 21.11H162.92V110.28H144.19V2.23H220.13C245.1 2.23 259.66 17.24 259.66 40.87C259.66 64.5 245.1 80.25 220.13 80.25H176.73L176.74 80.26Z" fill="#EA7F00"/>
<path d="M400.26 110.28L379.6 34.33L348.98 104.63C346.9 109.24 343.93 111.76 339.32 111.76C334.71 111.76 331.59 109.23 329.66 104.63L299.19 34.33L278.53 110.28H259.95L287.74 8.61998C289.08 3.41998 292.05 0.889984 297.1 0.889984C301.11 0.889984 304.83 3.11998 306.61 7.27998L339.9 83.67L373.19 7.27998C374.97 3.11998 378.24 0.889984 382.26 0.889984C386.87 0.889984 389.84 3.41998 391.33 8.61998L418.97 110.28H400.24H400.26Z" fill="#EA7F00"/>
<path d="M544.12 110.28L527.92 83.08H476.79L485.71 67.77H518.85L494.77 27.35L445.73 110.28H424.18L486.3 6.83998C488.53 3.12998 491.35 0.749985 495.51 0.749985C499.67 0.749985 502.35 3.12998 504.58 6.83998L566.85 110.28H544.11H544.12Z" fill="#EA7F00"/>
<path d="M134.83 133.02V130.05H256.4V133.02H134.83Z" fill="#EA7F00"/>
<path d="M256.39 133.02V130.05H569.08V133.02H256.39Z" fill="#EA7F00"/>
<path d="M140.06 144.44V142.16H145.48C147.13 142.16 148.12 141.12 148.12 139.6C148.12 138.08 147.14 137.06 145.48 137.06H138.33V148.2H135.99V134.7H145.48C148.6 134.7 150.42 136.58 150.42 139.53C150.42 142.48 148.6 144.45 145.48 144.45H140.06V144.44Z" fill="black"/>
<path d="M164.64 148.19L161.22 144.44H156.17V142.36H161.8C163.49 142.36 164.38 141.39 164.38 139.65C164.38 137.91 163.41 137.05 161.8 137.05H154.45V148.19H152.11V134.69H161.8C164.88 134.69 166.7 136.6 166.7 139.61C166.7 141.84 165.66 143.42 163.91 144.09L167.98 148.19H164.64Z" fill="black"/>
<path d="M175.06 148.19C171.29 148.19 168.5 145.22 168.5 141.3C168.5 137.38 171.29 134.69 175.06 134.69H178.35C182.25 134.69 184.96 137.38 184.96 141.3C184.96 145.22 182.19 148.19 178.35 148.19H175.06ZM178.35 145.83C180.84 145.83 182.6 143.95 182.6 141.41C182.6 138.87 180.84 137.05 178.35 137.05H175.06C172.65 137.05 170.86 138.85 170.86 141.41C170.86 143.97 172.62 145.83 175.06 145.83H178.35Z" fill="black"/>
<path d="M186.88 148.19V134.69H194.7C198.51 134.69 201.27 137.38 201.27 141.3C201.27 145.22 198.5 148.19 194.7 148.19H186.88ZM194.7 145.83C197.13 145.83 198.92 143.95 198.92 141.41C198.92 138.87 197.14 137.05 194.7 137.05H189.22V145.83H194.7Z" fill="black"/>
<path d="M215.28 134.69H217.58V142.23C217.58 146.41 215.52 148.38 210.28 148.38C205.04 148.38 203 146.41 203 142.23V134.69H205.43V142.23C205.43 144.94 206.64 146.06 210.35 146.06C214.06 146.06 215.27 144.95 215.27 142.23V134.69H215.28Z" fill="black"/>
<path d="M225.89 148.19C222.12 148.19 219.33 145.22 219.33 141.3C219.33 137.38 222.12 134.69 225.89 134.69H233.21V137.05H225.89C223.48 137.05 221.69 138.85 221.69 141.41C221.69 143.97 223.45 145.83 225.89 145.83H233.21V148.19H225.89Z" fill="black"/>
<path d="M239.45 148.19V137.05H234.33V134.69H246.94V137.05H241.81V148.19H239.45Z" fill="black"/>
<path d="M254.35 148.19C250.58 148.19 247.79 145.22 247.79 141.3C247.79 137.38 250.58 134.69 254.35 134.69H257.64C261.54 134.69 264.25 137.38 264.25 141.3C264.25 145.22 261.48 148.19 257.64 148.19H254.35ZM257.63 145.83C260.12 145.83 261.88 143.95 261.88 141.41C261.88 138.87 260.12 137.05 257.63 137.05H254.34C251.93 137.05 250.14 138.85 250.14 141.41C250.14 143.97 251.9 145.83 254.34 145.83H257.63Z" fill="black"/>
<path d="M266.17 148.19V145.83H276.29C277.55 145.83 278.26 145.12 278.26 144.07C278.26 142.92 277.55 142.32 276.29 142.32H270.09C267.55 142.32 265.97 140.7 265.97 138.48C265.97 136.26 267.44 134.69 270.13 134.69H279.82V137.05H270.13C269.05 137.05 268.42 137.68 268.42 138.7C268.42 139.72 269.07 140.33 270.11 140.33H276.29C279.02 140.33 280.49 141.61 280.49 144.23C280.49 146.5 279.12 148.19 276.29 148.19H266.17Z" fill="black"/>
<path d="M304.9 148.19L302.32 138.7L298.49 147.48C298.23 148.06 297.86 148.37 297.28 148.37C296.7 148.37 296.31 148.05 296.07 147.48L292.26 138.7L289.68 148.19H287.36L290.83 135.49C291 134.84 291.37 134.52 292 134.52C292.5 134.52 292.97 134.8 293.19 135.32L297.35 144.86L301.51 135.32C301.73 134.8 302.14 134.52 302.64 134.52C303.22 134.52 303.59 134.84 303.77 135.49L307.22 148.19H304.88H304.9Z" fill="black"/>
<path d="M308.81 148.19V134.69H320.86V137.05H311.15V145.83H320.88V148.19H308.81ZM312.88 142.32V140.33H320.36V142.32H312.88Z" fill="black"/>
<path d="M327.24 148.19V137.05H322.11V134.69H334.72V137.05H329.6V148.19H327.24Z" fill="black"/>
<path d="M347.82 148.19L345.8 144.79H339.41L340.52 142.88H344.66L341.65 137.83L335.52 148.19H332.83L340.59 135.27C340.87 134.81 341.22 134.51 341.74 134.51C342.26 134.51 342.59 134.81 342.87 135.27L350.65 148.19H347.81H347.82Z" fill="black"/>
<path d="M352.11 148.19V134.69H354.47V145.83H363.55V148.19H352.11Z" fill="black"/>
<path d="M365.38 148.19V134.69H367.74V148.19H365.38Z" fill="black"/>
<path d="M376.37 148.19C372.6 148.19 369.82 145.22 369.82 141.3C369.82 137.38 372.61 134.69 376.37 134.69H383.69V137.05H376.37C373.96 137.05 372.17 138.85 372.17 141.41C372.17 143.97 373.93 145.83 376.37 145.83H383.69V148.19H376.37Z" fill="black"/>
<path d="M391.77 148.19C388 148.19 385.22 145.22 385.22 141.3C385.22 137.38 388.01 134.69 391.77 134.69H395.06C398.96 134.69 401.67 137.38 401.67 141.3C401.67 145.22 398.9 148.19 395.06 148.19H391.77ZM395.06 145.83C397.55 145.83 399.31 143.95 399.31 141.41C399.31 138.87 397.55 137.05 395.06 137.05H391.77C389.36 137.05 387.57 138.85 387.57 141.41C387.57 143.97 389.33 145.83 391.77 145.83H395.06Z" fill="black"/>
<path d="M403.59 148.19V145.83H413.71C414.97 145.83 415.68 145.12 415.68 144.07C415.68 142.92 414.97 142.32 413.71 142.32H407.51C404.97 142.32 403.39 140.7 403.39 138.48C403.39 136.26 404.86 134.69 407.55 134.69H417.24V137.05H407.55C406.47 137.05 405.84 137.68 405.84 138.7C405.84 139.72 406.49 140.33 407.53 140.33H413.71C416.44 140.33 417.91 141.61 417.91 144.23C417.91 146.5 416.54 148.19 413.71 148.19H403.59Z" fill="black"/>
<path d="M431.77 148.19V143.07L424.6 134.69H427.78L433.03 140.91L438.3 134.69H441.31L434.12 143.07V148.19H431.76H431.77Z" fill="black"/>
<path d="M462.39 148.19L460.37 144.79H453.98L455.09 142.88H459.23L456.22 137.83L450.09 148.19H447.4L455.16 135.27C455.44 134.81 455.79 134.51 456.31 134.51C456.83 134.51 457.16 134.81 457.44 135.27L465.22 148.19H462.38H462.39Z" fill="black"/>
<path d="M471.05 148.19C467.28 148.19 464.5 145.22 464.5 141.3C464.5 137.38 467.29 134.69 471.05 134.69H478.37V137.05H471.05C468.64 137.05 466.85 138.85 466.85 141.41C466.85 143.97 468.61 145.83 471.05 145.83H478.37V148.19H471.05Z" fill="black"/>
<path d="M492.82 148.19L489.4 144.44H484.35V142.36H489.98C491.67 142.36 492.56 141.39 492.56 139.65C492.56 137.91 491.6 137.05 489.98 137.05H482.63V148.19H480.29V134.69H489.98C493.06 134.69 494.88 136.6 494.88 139.61C494.88 141.84 493.84 143.42 492.09 144.09L496.16 148.19H492.82Z" fill="black"/>
<path d="M497.53 148.19V134.69H499.89V148.19H497.53Z" fill="black"/>
<path d="M502.36 148.19V134.69H504.72V145.83H513.8V148.19H502.36Z" fill="black"/>
<path d="M515.62 148.19V134.69H517.98V148.19H515.62Z" fill="black"/>
<path d="M526.61 148.19C522.84 148.19 520.06 145.22 520.06 141.3C520.06 137.38 522.85 134.69 526.61 134.69H533.93V137.05H526.61C524.2 137.05 522.41 138.85 522.41 141.41C522.41 143.97 524.17 145.83 526.61 145.83H533.93V148.19H526.61Z" fill="black"/>
<path d="M542.02 148.19C538.25 148.19 535.47 145.22 535.47 141.3C535.47 137.38 538.26 134.69 542.02 134.69H545.31C549.21 134.69 551.92 137.38 551.92 141.3C551.92 145.22 549.15 148.19 545.31 148.19H542.02ZM545.3 145.83C547.79 145.83 549.55 143.95 549.55 141.41C549.55 138.87 547.79 137.05 545.3 137.05H542.01C539.6 137.05 537.81 138.85 537.81 141.41C537.81 143.97 539.57 145.83 542.01 145.83H545.3Z" fill="black"/>
<path d="M553.83 148.19V145.83H563.95C565.21 145.83 565.92 145.12 565.92 144.07C565.92 142.92 565.21 142.32 563.95 142.32H557.75C555.21 142.32 553.63 140.7 553.63 138.48C553.63 136.26 555.1 134.69 557.79 134.69H567.48V137.05H557.79C556.71 137.05 556.08 137.68 556.08 138.7C556.08 139.72 556.73 140.33 557.77 140.33H563.95C566.68 140.33 568.15 141.61 568.15 144.23C568.15 146.5 566.78 148.19 563.95 148.19H553.83Z" fill="black"/>
<path d="M400.25 110.26L379.59 34.31L348.97 104.61C346.89 109.22 343.92 111.74 339.31 111.74C334.7 111.74 331.58 109.21 329.65 104.61L299.18 34.31L278.52 110.26H259.94L287.73 8.59999C289.07 3.39999 292.04 0.86998 297.09 0.86998C301.1 0.86998 304.82 3.09999 306.6 7.25999L339.89 83.65L373.18 7.25999C374.96 3.09999 378.23 0.86998 382.25 0.86998C386.86 0.86998 389.83 3.39999 391.32 8.59999L418.96 110.26H400.23H400.25Z" fill="black"/>
<path d="M544.11 110.26L527.91 83.06H476.78L485.7 67.75H518.84L494.76 27.33L445.72 110.26H424.17L486.29 6.81999C488.52 3.10999 491.34 0.72998 495.5 0.72998C499.66 0.72998 502.34 3.10999 504.57 6.81999L566.84 110.26H544.1H544.11Z" fill="black"/>
<path d="M63.3 111.85V104.6L31.67 122.84V130.13L63.3 111.85Z" fill="#EA7F00"/>
<path d="M63.3 97.25V89.93L19.01 115.49V122.81L63.3 97.25Z" fill="#EA7F00"/>
<path d="M63.3 82.61V75.32L6.34998 108.21V115.49L63.3 82.61Z" fill="#EA7F00"/>
<path d="M63.3 38.76V2.23997L0 38.76L31.67 57.04L63.3 38.76Z" fill="#EA7F00"/>
<path d="M0 38.76V111.85L6.35 115.49V42.41L0 38.76Z" fill="black"/>
<path d="M12.66 46.08V119.17L19.01 122.81V49.73L12.66 46.08Z" fill="black"/>
<path d="M25.34 53.39V126.47L31.69 130.11V57.03L25.34 53.39Z" fill="black"/>
<path d="M94.89 20.49V93.58L101.24 97.22V24.14L94.89 20.49Z" fill="#EA7F00"/>
<path d="M107.55 27.81V100.9L113.9 104.54V31.45L107.55 27.81Z" fill="#EA7F00"/>
<path d="M120.23 35.11V108.2L126.58 111.84V38.76L120.23 35.11Z" fill="#EA7F00"/>
<path d="M63.3 38.76V46.05L101.25 24.13L94.9001 20.49L63.3 38.76Z" fill="black"/>
<path d="M63.3 53.37V60.69L113.91 31.45L107.6 27.8L63.3 53.37Z" fill="black"/>
<path d="M63.3 68.01V75.32L126.57 38.76L120.29 35.12L63.3 68.01Z" fill="black"/>
<path d="M94.9701 93.57L63.3 111.85V148.37L126.57 111.85L94.9701 93.57Z" fill="black"/>
</svg>
