<svg width="409" height="38" viewBox="0 0 409 38" fill="none" xmlns="http://www.w3.org/2000/svg">
<g clip-path="url(#clip0_2017_914)">
<path d="M55.2632 27.1796V20.9512H70.1677C74.7111 20.9512 77.4138 18.1164 77.4138 13.9629C77.4138 9.80951 74.7077 7.02579 70.1677 7.02579H50.5171V37.4082H44.0849V0.596313H70.1642C78.7394 0.596313 83.7396 5.71059 83.7396 13.7619C83.7396 21.8132 78.7394 27.1796 70.1642 27.1796H55.2598H55.2632Z" fill="#EA7F00"/>
<path d="M132.025 37.4082L124.929 11.5302L114.414 35.4831C113.7 37.0539 112.68 37.9125 111.097 37.9125C109.513 37.9125 108.442 37.0505 107.779 35.4831L97.3151 11.5302L90.22 37.4082H83.8392L93.3829 2.77015C93.8431 0.998386 94.863 0.136353 96.5973 0.136353C97.9744 0.136353 99.2519 0.896169 99.8632 2.31358L111.296 28.3415L122.735 2.31699C123.346 0.899576 124.469 0.13976 125.85 0.13976C127.433 0.13976 128.453 1.00179 128.965 2.77356L138.457 37.4116H132.025V37.4082Z" fill="#EA7F00"/>
<path d="M181.429 37.4082L175.866 28.1405H158.307L161.37 22.924H172.751L164.481 9.1519L147.64 37.4082H140.239L161.576 2.16364C162.342 0.899548 163.31 0.088623 164.739 0.088623C166.167 0.088623 167.088 0.899548 167.854 2.16364L189.238 37.4082H181.429Z" fill="#EA7F00"/>
<path d="M212.838 13.8845V12.2763H216.681C217.852 12.2763 218.549 11.5438 218.549 10.4739C218.549 9.40401 217.852 8.68509 216.681 8.68509H211.612V16.5218H209.954V7.02576H216.681C218.893 7.02576 220.184 8.34436 220.184 10.4228C220.184 12.5012 218.893 13.8845 216.681 13.8845H212.838Z" fill="black"/>
<path d="M230.26 16.5218L227.839 13.8845H224.257V12.4228H228.244C229.443 12.4228 230.075 11.7448 230.075 10.5148C230.075 9.28476 229.391 8.68509 228.244 8.68509H223.031V16.5218H221.372V7.02576H228.244C230.428 7.02576 231.72 8.37162 231.72 10.4875C231.72 12.0549 230.981 13.1656 229.745 13.6358L232.63 16.5218H230.26Z" fill="black"/>
<path d="M237.647 16.5218C234.975 16.5218 233 14.4331 233 11.6766C233 8.92019 234.975 7.02576 237.647 7.02576H239.979C242.743 7.02576 244.666 8.92019 244.666 11.6766C244.666 14.4331 242.706 16.5218 239.979 16.5218H237.647ZM239.979 14.8624C241.744 14.8624 242.994 13.5438 242.994 11.755C242.994 9.96621 241.744 8.68509 239.979 8.68509H237.647C235.937 8.68509 234.673 9.95258 234.673 11.755C234.673 13.5574 235.923 14.8624 237.647 14.8624H239.979Z" fill="black"/>
<path d="M246.026 16.5218V7.02576H251.569C254.268 7.02576 256.229 8.92019 256.229 11.6766C256.229 14.4331 254.268 16.5218 251.569 16.5218H246.026ZM251.569 14.8624C253.293 14.8624 254.557 13.5438 254.557 11.755C254.557 9.96621 253.293 8.68509 251.569 8.68509H247.685V14.8624H251.569Z" fill="black"/>
<path d="M266.158 7.02576H267.789V12.3274C267.789 15.2645 266.329 16.6512 262.617 16.6512C258.905 16.6512 257.455 15.2679 257.455 12.3274V7.02576H259.179V12.3274C259.179 14.2355 260.035 15.0192 262.669 15.0192C265.303 15.0192 266.158 14.2355 266.158 12.3274V7.02576Z" fill="black"/>
<path d="M273.679 16.5218C271.007 16.5218 269.032 14.4331 269.032 11.6766C269.032 8.92019 271.007 7.02576 273.679 7.02576H278.864V8.68509H273.679C271.968 8.68509 270.705 9.95258 270.705 11.755C270.705 13.5574 271.955 14.8624 273.679 14.8624H278.864V16.5218H273.679Z" fill="black"/>
<path d="M283.294 16.5218V8.68509H279.661V7.02576H288.6V8.68509H284.967V16.5218H283.294Z" fill="black"/>
<path d="M293.855 16.5218C291.183 16.5218 289.208 14.4331 289.208 11.6766C289.208 8.92019 291.183 7.02576 293.855 7.02576H296.186C298.951 7.02576 300.874 8.92019 300.874 11.6766C300.874 14.4331 298.913 16.5218 296.186 16.5218H293.855ZM296.186 14.8624C297.952 14.8624 299.202 13.5438 299.202 11.755C299.202 9.96621 297.952 8.68509 296.186 8.68509H293.855C292.144 8.68509 290.881 9.95258 290.881 11.755C290.881 13.5574 292.131 14.8624 293.855 14.8624H296.186Z" fill="black"/>
<path d="M302.234 16.5218V14.8624H309.408C310.304 14.8624 310.802 14.365 310.802 13.6222C310.802 12.8113 310.301 12.3956 309.408 12.3956H305.012C303.209 12.3956 302.09 11.261 302.09 9.69364C302.09 8.12631 303.13 7.02917 305.04 7.02917H311.912V8.6885H305.04C304.277 8.6885 303.828 9.13145 303.828 9.85037C303.828 10.5693 304.288 10.9986 305.026 10.9986H309.408C311.345 10.9986 312.382 11.8981 312.382 13.7415C312.382 15.336 311.407 16.5218 309.408 16.5218H302.234Z" fill="black"/>
<path d="M222.382 30.8457L220.551 24.1709L217.838 30.3483C217.653 30.7537 217.392 30.9752 216.983 30.9752C216.575 30.9752 216.3 30.7537 216.128 30.3483L213.429 24.1709L211.599 30.8457H209.954L212.416 21.9119C212.533 21.4554 212.797 21.2339 213.247 21.2339C213.601 21.2339 213.93 21.4315 214.088 21.7961L217.038 28.5084L219.988 21.7961C220.146 21.4315 220.435 21.2339 220.792 21.2339C221.201 21.2339 221.465 21.4554 221.595 21.9119L224.044 30.8457H222.385H222.382Z" fill="black"/>
<path d="M225.153 30.8458V21.3499H233.698V23.0092H226.812V29.1865H233.711V30.8458H225.153ZM228.035 26.7197V25.3227H233.34V26.7197H228.035Z" fill="black"/>
<path d="M238.214 30.8458V23.0092H234.58V21.3499H243.519V23.0092H239.886V30.8458H238.214Z" fill="black"/>
<path d="M252.802 30.8458L251.367 28.4539H246.837L247.627 27.108H250.563L248.43 23.5543L244.086 30.8424H242.177L247.678 21.7519C247.874 21.4248 248.125 21.2169 248.496 21.2169C248.867 21.2169 249.1 21.4248 249.299 21.7519L254.815 30.8424H252.802V30.8458Z" fill="black"/>
<path d="M255.848 30.8458V21.3499H257.521V29.1865H263.96V30.8458H255.852H255.848Z" fill="black"/>
<path d="M265.255 30.8458V21.3499H266.927V30.8458H265.255Z" fill="black"/>
<path d="M273.047 30.8458C270.375 30.8458 268.4 28.7572 268.4 26.0007C268.4 23.2443 270.375 21.3499 273.047 21.3499H278.232V23.0092H273.047C271.336 23.0092 270.073 24.2767 270.073 26.0791C270.073 27.8815 271.323 29.1865 273.047 29.1865H278.232V30.8458H273.047Z" fill="black"/>
<path d="M283.964 30.8458C281.292 30.8458 279.318 28.7572 279.318 26.0007C279.318 23.2443 281.292 21.3499 283.964 21.3499H286.296C289.06 21.3499 290.984 23.2443 290.984 26.0007C290.984 28.7572 289.023 30.8458 286.296 30.8458H283.964ZM286.296 29.1899C288.061 29.1899 289.311 27.8713 289.311 26.0825C289.311 24.2937 288.061 23.0126 286.296 23.0126H283.964C282.254 23.0126 280.99 24.2801 280.99 26.0825C280.99 27.885 282.24 29.1899 283.964 29.1899H286.296Z" fill="black"/>
<path d="M292.344 30.8457V29.1864H299.518C300.414 29.1864 300.912 28.6889 300.912 27.9462C300.912 27.1352 300.41 26.7196 299.518 26.7196H295.122C293.319 26.7196 292.199 25.5849 292.199 24.0176C292.199 22.4503 293.24 21.3531 295.149 21.3531H302.021V23.0125H295.149C294.387 23.0125 293.937 23.4554 293.937 24.1743C293.937 24.8933 294.397 25.3226 295.136 25.3226H299.518C301.454 25.3226 302.492 26.2221 302.492 28.0654C302.492 29.66 301.516 30.8457 299.518 30.8457H292.344Z" fill="black"/>
<path d="M312.317 30.8458V27.241L307.234 21.3499H309.487L313.213 25.7248L316.953 21.3499H319.086L313.989 27.241V30.8458H312.317Z" fill="black"/>
<path d="M334.028 30.8458L332.592 28.4539H328.063L328.853 27.108H331.789L329.656 23.5543L325.312 30.8424H323.402L328.904 21.7519C329.1 21.4248 329.35 21.2169 329.721 21.2169C330.092 21.2169 330.326 21.4248 330.525 21.7519L336.04 30.8424H334.028V30.8458Z" fill="black"/>
<path d="M340.165 30.8458C337.493 30.8458 335.518 28.7572 335.518 26.0007C335.518 23.2443 337.493 21.3499 340.165 21.3499H345.35V23.0092H340.165C338.455 23.0092 337.191 24.2767 337.191 26.0791C337.191 27.8815 338.441 29.1865 340.165 29.1865H345.35V30.8458H340.165Z" fill="black"/>
<path d="M355.602 30.8458L353.18 28.2086H349.599V26.7469H353.589C354.788 26.7469 355.42 26.0689 355.42 24.8389C355.42 23.6089 354.736 23.0092 353.589 23.0092H348.376V30.8458H346.717V21.3499H353.589C355.773 21.3499 357.065 22.6957 357.065 24.8116C357.065 26.3789 356.326 27.4897 355.09 27.9599L357.971 30.8458H355.602Z" fill="black"/>
<path d="M358.936 30.8458V21.3499H360.609V30.8458H358.936Z" fill="black"/>
<path d="M362.36 30.8458V21.3499H364.033V29.1865H370.472V30.8458H362.364H362.36Z" fill="black"/>
<path d="M371.763 30.8458V21.3499H373.435V30.8458H371.763Z" fill="black"/>
<path d="M379.555 30.8458C376.883 30.8458 374.909 28.7572 374.909 26.0007C374.909 23.2443 376.883 21.3499 379.555 21.3499H384.741V23.0092H379.555C377.845 23.0092 376.581 24.2767 376.581 26.0791C376.581 27.8815 377.831 29.1865 379.555 29.1865H384.741V30.8458H379.555Z" fill="black"/>
<path d="M390.476 30.8458C387.804 30.8458 385.829 28.7572 385.829 26.0007C385.829 23.2443 387.804 21.3499 390.476 21.3499H392.808C395.572 21.3499 397.495 23.2443 397.495 26.0007C397.495 28.7572 395.534 30.8458 392.808 30.8458H390.476ZM392.804 29.1899C394.569 29.1899 395.819 27.8713 395.819 26.0825C395.819 24.2937 394.569 23.0126 392.804 23.0126H390.472C388.762 23.0126 387.498 24.2801 387.498 26.0825C387.498 27.885 388.748 29.1899 390.472 29.1899H392.804Z" fill="black"/>
<path d="M398.852 30.8457V29.1864H406.026C406.922 29.1864 407.42 28.6889 407.42 27.9462C407.42 27.1352 406.919 26.7196 406.026 26.7196H401.627C399.824 26.7196 398.704 25.5849 398.704 24.0176C398.704 22.4503 399.745 21.3531 401.654 21.3531H408.526V23.0125H401.654C400.892 23.0125 400.442 23.4554 400.442 24.1743C400.442 24.8933 400.902 25.3226 401.641 25.3226H406.026C407.959 25.3226 409 26.2221 409 28.0654C409 29.66 408.025 30.8457 406.026 30.8457H398.852Z" fill="black"/>
<path d="M132.021 37.4085L124.926 11.5304L114.411 35.4834C113.696 37.0541 112.676 37.9127 111.093 37.9127C109.51 37.9127 108.438 37.0507 107.776 35.4834L97.3116 11.5304L90.2166 37.4085H83.8358L93.3795 2.7704C93.8396 0.99863 94.8596 0.136597 96.5939 0.136597C97.971 0.136597 99.2485 0.896413 99.8598 2.31383L111.292 28.3418L122.732 2.31723C123.343 0.89982 124.466 0.140004 125.846 0.140004C127.43 0.140004 128.45 1.00204 128.961 2.77381L138.453 37.4119H132.021V37.4085Z" fill="black"/>
<path d="M181.426 37.4082L175.862 28.1405H158.303L161.366 22.924H172.747L164.478 9.1519L147.636 37.4082H140.236L161.569 2.16364C162.335 0.899548 163.303 0.088623 164.732 0.088623C166.161 0.088623 167.081 0.899548 167.847 2.16364L189.232 37.4082H181.422H181.426Z" fill="black"/>
<path d="M16.3056 28.3415V26.4879L8.15623 31.149V33.0128L16.3056 28.3415Z" fill="#EA7F00"/>
<path d="M16.3056 24.607V22.7399L4.89717 29.2716V31.1421L16.3056 24.607Z" fill="#EA7F00"/>
<path d="M16.3056 20.8694V19.0056L1.63468 27.4113V29.2717L16.3056 20.8694Z" fill="#EA7F00"/>
<path d="M16.3056 9.66289V0.330444L0 9.66289L8.15624 14.3342L16.3056 9.66289Z" fill="#EA7F00"/>
<path d="M0 9.66284V28.3414L1.63468 29.2715V10.593L0 9.66284Z" fill="black"/>
<path d="M3.2625 11.5334V30.212L4.89718 31.1422V12.4636L3.2625 11.5334Z" fill="black"/>
<path d="M6.52842 13.4006V32.0758L8.1631 33.0093V14.3308L6.52842 13.4006Z" fill="black"/>
<path d="M24.4412 4.995V23.6701L26.0793 24.6037V5.92517L24.4412 4.995Z" fill="#EA7F00"/>
<path d="M27.7037 6.8656V25.5407L29.3384 26.4709V7.79578L27.7037 6.8656Z" fill="#EA7F00"/>
<path d="M30.9697 8.72925V27.4078L32.6043 28.3379V9.65943L30.9697 8.72925Z" fill="#EA7F00"/>
<path d="M16.3056 9.66291V11.5233L26.0794 5.92176L24.4447 4.99158L16.3056 9.66291Z" fill="black"/>
<path d="M16.3056 13.3939V15.2645L29.3418 7.79236L27.714 6.86218L16.3056 13.3939Z" fill="black"/>
<path d="M16.3056 17.1349V19.0055L32.6009 9.66284L30.9868 8.73267L16.3056 17.1349Z" fill="black"/>
<path d="M24.4618 23.67L16.3056 28.3414V37.6738L32.6009 28.3414L24.4618 23.67Z" fill="black"/>
<path d="M201.069 0H200.042V38.0044H201.069V0Z" fill="#EA7F00"/>
</g>
<defs>
<clipPath id="clip0_2017_914">
<rect width="409" height="38.0044" fill="white"/>
</clipPath>
</defs>
</svg>
