<svg width="570" height="148" viewBox="0 0 570 148" fill="none" xmlns="http://www.w3.org/2000/svg">
<path d="M177.24 79.53V61.25H220.64C233.87 61.25 241.74 52.93 241.74 40.74C241.74 28.55 233.86 20.38 220.64 20.38H163.42V109.55H144.69V1.50999H220.63C245.6 1.50999 260.16 16.52 260.16 40.15C260.16 63.78 245.6 79.53 220.63 79.53H177.23H177.24Z" fill="white"/>
<path d="M400.76 109.56L380.1 33.61L349.48 103.91C347.4 108.52 344.43 111.04 339.82 111.04C335.21 111.04 332.09 108.51 330.16 103.91L299.69 33.61L279.03 109.56H260.45L288.24 7.9C289.58 2.7 292.55 0.169998 297.6 0.169998C301.61 0.169998 305.33 2.4 307.11 6.56L340.4 82.95L373.69 6.56C375.47 2.4 378.74 0.169998 382.76 0.169998C387.37 0.169998 390.34 2.7 391.83 7.9L419.47 109.56H400.74H400.76Z" fill="white"/>
<path d="M544.62 109.56L528.42 82.36H477.29L486.21 67.05H519.35L495.27 26.63L446.23 109.56H424.68L486.8 6.12C489.03 2.41 491.85 0.0299988 496.01 0.0299988C500.17 0.0299988 502.85 2.41 505.08 6.12L567.35 109.56H544.61H544.62Z" fill="white"/>
<path d="M135.33 132.29V129.32H256.9V132.29H135.33Z" fill="white"/>
<path d="M256.9 132.29V129.32H569.59V132.29H256.9Z" fill="white"/>
<path d="M140.57 143.71V141.43H145.99C147.64 141.43 148.63 140.39 148.63 138.87C148.63 137.35 147.65 136.33 145.99 136.33H138.84V147.47H136.5V133.97H145.99C149.11 133.97 150.93 135.85 150.93 138.8C150.93 141.75 149.11 143.72 145.99 143.72H140.57V143.71Z" fill="white"/>
<path d="M165.14 147.46L161.72 143.71H156.67V141.63H162.3C163.99 141.63 164.88 140.66 164.88 138.92C164.88 137.18 163.91 136.32 162.3 136.32H154.95V147.46H152.61V133.96H162.3C165.38 133.96 167.2 135.87 167.2 138.88C167.2 141.11 166.16 142.69 164.41 143.36L168.48 147.46H165.14Z" fill="white"/>
<path d="M175.56 147.46C171.79 147.46 169 144.49 169 140.57C169 136.65 171.79 133.96 175.56 133.96H178.85C182.75 133.96 185.46 136.65 185.46 140.57C185.46 144.49 182.69 147.46 178.85 147.46H175.56ZM178.85 145.1C181.34 145.1 183.1 143.22 183.1 140.68C183.1 138.14 181.34 136.32 178.85 136.32H175.56C173.15 136.32 171.36 138.12 171.36 140.68C171.36 143.24 173.12 145.1 175.56 145.1H178.85Z" fill="white"/>
<path d="M187.38 147.46V133.96H195.2C199.01 133.96 201.77 136.65 201.77 140.57C201.77 144.49 199 147.46 195.2 147.46H187.38ZM195.2 145.1C197.63 145.1 199.42 143.22 199.42 140.68C199.42 138.14 197.64 136.32 195.2 136.32H189.72V145.1H195.2Z" fill="white"/>
<path d="M215.78 133.96H218.08V141.5C218.08 145.68 216.02 147.65 210.78 147.65C205.54 147.65 203.5 145.68 203.5 141.5V133.96H205.93V141.5C205.93 144.21 207.14 145.33 210.85 145.33C214.56 145.33 215.77 144.22 215.77 141.5V133.96H215.78Z" fill="white"/>
<path d="M226.39 147.46C222.62 147.46 219.83 144.49 219.83 140.57C219.83 136.65 222.62 133.96 226.39 133.96H233.71V136.32H226.39C223.98 136.32 222.19 138.12 222.19 140.68C222.19 143.24 223.95 145.1 226.39 145.1H233.71V147.46H226.39Z" fill="white"/>
<path d="M239.95 147.46V136.32H234.83V133.96H247.44V136.32H242.31V147.46H239.95Z" fill="white"/>
<path d="M254.85 147.46C251.08 147.46 248.29 144.49 248.29 140.57C248.29 136.65 251.08 133.96 254.85 133.96H258.14C262.04 133.96 264.75 136.65 264.75 140.57C264.75 144.49 261.98 147.46 258.14 147.46H254.85ZM258.14 145.1C260.63 145.1 262.39 143.22 262.39 140.68C262.39 138.14 260.63 136.32 258.14 136.32H254.85C252.44 136.32 250.65 138.12 250.65 140.68C250.65 143.24 252.41 145.1 254.85 145.1H258.14Z" fill="white"/>
<path d="M266.67 147.46V145.1H276.79C278.05 145.1 278.76 144.39 278.76 143.34C278.76 142.19 278.05 141.59 276.79 141.59H270.59C268.05 141.59 266.47 139.97 266.47 137.75C266.47 135.53 267.94 133.96 270.63 133.96H280.32V136.32H270.63C269.55 136.32 268.92 136.95 268.92 137.97C268.92 138.99 269.57 139.6 270.61 139.6H276.79C279.52 139.6 280.99 140.88 280.99 143.5C280.99 145.77 279.62 147.46 276.79 147.46H266.67Z" fill="white"/>
<path d="M305.41 147.46L302.83 137.97L299 146.75C298.74 147.33 298.37 147.64 297.79 147.64C297.21 147.64 296.82 147.32 296.58 146.75L292.77 137.97L290.19 147.46H287.87L291.34 134.76C291.51 134.11 291.88 133.79 292.51 133.79C293.01 133.79 293.48 134.07 293.7 134.59L297.86 144.13L302.02 134.59C302.24 134.07 302.65 133.79 303.15 133.79C303.73 133.79 304.1 134.11 304.28 134.76L307.73 147.46H305.39H305.41Z" fill="white"/>
<path d="M309.32 147.46V133.96H321.37V136.32H311.66V145.1H321.39V147.46H309.32ZM313.38 141.59V139.6H320.86V141.59H313.38Z" fill="white"/>
<path d="M327.74 147.46V136.32H322.61V133.96H335.22V136.32H330.1V147.46H327.74Z" fill="white"/>
<path d="M348.32 147.46L346.3 144.06H339.91L341.02 142.15H345.16L342.15 137.1L336.02 147.46H333.33L341.09 134.54C341.37 134.08 341.72 133.78 342.24 133.78C342.76 133.78 343.09 134.08 343.37 134.54L351.15 147.46H348.31H348.32Z" fill="white"/>
<path d="M352.62 147.46V133.96H354.98V145.1H364.06V147.46H352.62Z" fill="white"/>
<path d="M365.88 147.46V133.96H368.24V147.46H365.88Z" fill="white"/>
<path d="M376.88 147.46C373.11 147.46 370.33 144.49 370.33 140.57C370.33 136.65 373.12 133.96 376.88 133.96H384.2V136.32H376.88C374.47 136.32 372.68 138.12 372.68 140.68C372.68 143.24 374.44 145.1 376.88 145.1H384.2V147.46H376.88Z" fill="white"/>
<path d="M392.28 147.46C388.51 147.46 385.73 144.49 385.73 140.57C385.73 136.65 388.52 133.96 392.28 133.96H395.57C399.47 133.96 402.18 136.65 402.18 140.57C402.18 144.49 399.41 147.46 395.57 147.46H392.28ZM395.56 145.1C398.05 145.1 399.81 143.22 399.81 140.68C399.81 138.14 398.05 136.32 395.56 136.32H392.27C389.86 136.32 388.07 138.12 388.07 140.68C388.07 143.24 389.83 145.1 392.27 145.1H395.56Z" fill="white"/>
<path d="M404.09 147.46V145.1H414.21C415.47 145.1 416.18 144.39 416.18 143.34C416.18 142.19 415.47 141.59 414.21 141.59H408.01C405.47 141.59 403.89 139.97 403.89 137.75C403.89 135.53 405.36 133.96 408.05 133.96H417.74V136.32H408.05C406.97 136.32 406.34 136.95 406.34 137.97C406.34 138.99 406.99 139.6 408.03 139.6H414.21C416.94 139.6 418.41 140.88 418.41 143.5C418.41 145.77 417.04 147.46 414.21 147.46H404.09Z" fill="white"/>
<path d="M432.27 147.46V142.34L425.1 133.96H428.28L433.53 140.18L438.8 133.96H441.81L434.62 142.34V147.46H432.26H432.27Z" fill="white"/>
<path d="M462.89 147.46L460.87 144.06H454.48L455.59 142.15H459.73L456.72 137.1L450.59 147.46H447.9L455.66 134.54C455.94 134.08 456.29 133.78 456.81 133.78C457.33 133.78 457.66 134.08 457.94 134.54L465.72 147.46H462.88H462.89Z" fill="white"/>
<path d="M471.55 147.46C467.78 147.46 465 144.49 465 140.57C465 136.65 467.79 133.96 471.55 133.96H478.87V136.32H471.55C469.14 136.32 467.35 138.12 467.35 140.68C467.35 143.24 469.11 145.1 471.55 145.1H478.87V147.46H471.55Z" fill="white"/>
<path d="M493.32 147.46L489.9 143.71H484.85V141.63H490.48C492.17 141.63 493.06 140.66 493.06 138.92C493.06 137.18 492.1 136.32 490.48 136.32H483.13V147.46H480.79V133.96H490.48C493.56 133.96 495.38 135.87 495.38 138.88C495.38 141.11 494.34 142.69 492.59 143.36L496.66 147.46H493.32Z" fill="white"/>
<path d="M498.03 147.46V133.96H500.39V147.46H498.03Z" fill="white"/>
<path d="M502.86 147.46V133.96H505.22V145.1H514.3V147.46H502.86Z" fill="white"/>
<path d="M516.12 147.46V133.96H518.48V147.46H516.12Z" fill="white"/>
<path d="M527.12 147.46C523.35 147.46 520.57 144.49 520.57 140.57C520.57 136.65 523.36 133.96 527.12 133.96H534.44V136.32H527.12C524.71 136.32 522.92 138.12 522.92 140.68C522.92 143.24 524.68 145.1 527.12 145.1H534.44V147.46H527.12Z" fill="white"/>
<path d="M542.52 147.46C538.75 147.46 535.97 144.49 535.97 140.57C535.97 136.65 538.76 133.96 542.52 133.96H545.81C549.71 133.96 552.42 136.65 552.42 140.57C552.42 144.49 549.65 147.46 545.81 147.46H542.52ZM545.81 145.1C548.3 145.1 550.06 143.22 550.06 140.68C550.06 138.14 548.3 136.32 545.81 136.32H542.52C540.11 136.32 538.32 138.12 538.32 140.68C538.32 143.24 540.08 145.1 542.52 145.1H545.81Z" fill="white"/>
<path d="M554.34 147.46V145.1H564.46C565.72 145.1 566.43 144.39 566.43 143.34C566.43 142.19 565.72 141.59 564.46 141.59H558.26C555.72 141.59 554.14 139.97 554.14 137.75C554.14 135.53 555.61 133.96 558.3 133.96H567.99V136.32H558.3C557.22 136.32 556.59 136.95 556.59 137.97C556.59 138.99 557.24 139.6 558.28 139.6H564.46C567.19 139.6 568.66 140.88 568.66 143.5C568.66 145.77 567.29 147.46 564.46 147.46H554.34Z" fill="white"/>
<path d="M400.75 109.53L380.09 33.58L349.47 103.88C347.39 108.49 344.42 111.01 339.81 111.01C335.2 111.01 332.08 108.48 330.15 103.88L299.68 33.58L279.02 109.53H260.44L288.23 7.87C289.57 2.67 292.54 0.139999 297.59 0.139999C301.6 0.139999 305.32 2.37 307.1 6.53L340.39 82.92L373.68 6.53C375.46 2.37 378.73 0.139999 382.75 0.139999C387.36 0.139999 390.33 2.67 391.82 7.87L419.46 109.53H400.73H400.75Z" fill="white"/>
<path d="M544.61 109.53L528.41 82.33H477.28L486.2 67.02H519.34L495.26 26.6L446.22 109.53H424.67L486.79 6.09C489.02 2.38 491.84 0 496 0C500.16 0 502.84 2.38 505.07 6.09L567.34 109.53H544.6H544.61Z" fill="white"/>
<path d="M63.7999 111.12V103.87L32.1699 122.12V129.4L63.7999 111.12Z" fill="white"/>
<path d="M63.8 96.52V89.2L19.51 114.76V122.08L63.8 96.52Z" fill="white"/>
<path d="M63.8001 81.88V74.6L6.8501 107.48V114.76L63.8001 81.88Z" fill="white"/>
<path d="M63.8 38.04V1.50999L0.5 38.04L32.17 56.32L63.8 38.04Z" fill="white"/>
<path d="M0.5 38.04V111.12L6.84998 114.76V41.68L0.5 38.04Z" fill="white"/>
<path d="M13.1599 45.36V118.44L19.5099 122.08V49L13.1599 45.36Z" fill="white"/>
<path d="M25.8401 52.66V125.74L32.1901 129.38V56.3L25.8401 52.66Z" fill="white"/>
<path d="M95.3999 19.77V92.85L101.74 96.49V23.41L95.3999 19.77Z" fill="white"/>
<path d="M108.06 27.09V100.17L114.4 103.81V30.73L108.06 27.09Z" fill="white"/>
<path d="M120.73 34.39V107.47L127.08 111.11V38.03L120.73 34.39Z" fill="white"/>
<path d="M63.8 38.04V45.32L101.75 23.4L95.4001 19.76L63.8 38.04Z" fill="white"/>
<path d="M63.8 52.64V59.96L114.41 30.72L108.1 27.08L63.8 52.64Z" fill="white"/>
<path d="M63.8 67.28V74.6L127.07 38.04L120.79 34.4L63.8 67.28Z" fill="white"/>
<path d="M95.47 92.84L63.8 111.12V147.65L127.07 111.12L95.47 92.84Z" fill="white"/>
</svg>
