<svg width="570" height="149" viewBox="0 0 570 149" fill="none" xmlns="http://www.w3.org/2000/svg">
<path d="M177.24 80.26V61.98H220.64C233.87 61.98 241.74 53.66 241.74 41.47C241.74 29.28 233.86 21.11 220.64 21.11H163.42V110.28H144.69V2.23H220.63C245.6 2.23 260.16 17.24 260.16 40.87C260.16 64.5 245.6 80.25 220.63 80.25H177.23L177.24 80.26Z" fill="#EA7F00"/>
<path d="M400.76 110.28L380.1 34.33L349.48 104.63C347.4 109.24 344.43 111.76 339.82 111.76C335.21 111.76 332.09 109.23 330.16 104.63L299.69 34.33L279.03 110.28H260.45L288.24 8.61998C289.58 3.41998 292.55 0.889984 297.6 0.889984C301.61 0.889984 305.33 3.11998 307.11 7.27998L340.4 83.67L373.69 7.27998C375.47 3.11998 378.74 0.889984 382.76 0.889984C387.37 0.889984 390.34 3.41998 391.83 8.61998L419.47 110.28H400.74H400.76Z" fill="#EA7F00"/>
<path d="M544.62 110.28L528.42 83.08H477.29L486.21 67.77H519.35L495.27 27.35L446.23 110.28H424.68L486.8 6.83998C489.03 3.12998 491.85 0.749985 496.01 0.749985C500.17 0.749985 502.85 3.12998 505.08 6.83998L567.35 110.28H544.61H544.62Z" fill="#EA7F00"/>
<path d="M135.33 133.02V130.05H256.9V133.02H135.33Z" fill="#EA7F00"/>
<path d="M256.9 133.02V130.05H569.59V133.02H256.9Z" fill="#EA7F00"/>
<path d="M140.57 144.44V142.16H145.99C147.64 142.16 148.63 141.12 148.63 139.6C148.63 138.08 147.65 137.06 145.99 137.06H138.84V148.2H136.5V134.7H145.99C149.11 134.7 150.93 136.58 150.93 139.53C150.93 142.48 149.11 144.45 145.99 144.45H140.57V144.44Z" fill="#EA7F00"/>
<path d="M165.14 148.19L161.72 144.44H156.67V142.36H162.3C163.99 142.36 164.88 141.39 164.88 139.65C164.88 137.91 163.91 137.05 162.3 137.05H154.95V148.19H152.61V134.69H162.3C165.38 134.69 167.2 136.6 167.2 139.61C167.2 141.84 166.16 143.42 164.41 144.09L168.48 148.19H165.14Z" fill="#EA7F00"/>
<path d="M175.56 148.19C171.79 148.19 169 145.22 169 141.3C169 137.38 171.79 134.69 175.56 134.69H178.85C182.75 134.69 185.46 137.38 185.46 141.3C185.46 145.22 182.69 148.19 178.85 148.19H175.56ZM178.85 145.83C181.34 145.83 183.1 143.95 183.1 141.41C183.1 138.87 181.34 137.05 178.85 137.05H175.56C173.15 137.05 171.36 138.85 171.36 141.41C171.36 143.97 173.12 145.83 175.56 145.83H178.85Z" fill="#EA7F00"/>
<path d="M187.38 148.19V134.69H195.2C199.01 134.69 201.77 137.38 201.77 141.3C201.77 145.22 199 148.19 195.2 148.19H187.38ZM195.2 145.83C197.63 145.83 199.42 143.95 199.42 141.41C199.42 138.87 197.64 137.05 195.2 137.05H189.72V145.83H195.2Z" fill="#EA7F00"/>
<path d="M215.78 134.69H218.08V142.23C218.08 146.41 216.02 148.38 210.78 148.38C205.54 148.38 203.5 146.41 203.5 142.23V134.69H205.93V142.23C205.93 144.94 207.14 146.06 210.85 146.06C214.56 146.06 215.77 144.95 215.77 142.23V134.69H215.78Z" fill="#EA7F00"/>
<path d="M226.39 148.19C222.62 148.19 219.83 145.22 219.83 141.3C219.83 137.38 222.62 134.69 226.39 134.69H233.71V137.05H226.39C223.98 137.05 222.19 138.85 222.19 141.41C222.19 143.97 223.95 145.83 226.39 145.83H233.71V148.19H226.39Z" fill="#EA7F00"/>
<path d="M239.95 148.19V137.05H234.83V134.69H247.44V137.05H242.31V148.19H239.95Z" fill="#EA7F00"/>
<path d="M254.85 148.19C251.08 148.19 248.29 145.22 248.29 141.3C248.29 137.38 251.08 134.69 254.85 134.69H258.14C262.04 134.69 264.75 137.38 264.75 141.3C264.75 145.22 261.98 148.19 258.14 148.19H254.85ZM258.14 145.83C260.63 145.83 262.39 143.95 262.39 141.41C262.39 138.87 260.63 137.05 258.14 137.05H254.85C252.44 137.05 250.65 138.85 250.65 141.41C250.65 143.97 252.41 145.83 254.85 145.83H258.14Z" fill="#EA7F00"/>
<path d="M266.67 148.19V145.83H276.79C278.05 145.83 278.76 145.12 278.76 144.07C278.76 142.92 278.05 142.32 276.79 142.32H270.59C268.05 142.32 266.47 140.7 266.47 138.48C266.47 136.26 267.94 134.69 270.63 134.69H280.32V137.05H270.63C269.55 137.05 268.92 137.68 268.92 138.7C268.92 139.72 269.57 140.33 270.61 140.33H276.79C279.52 140.33 280.99 141.61 280.99 144.23C280.99 146.5 279.62 148.19 276.79 148.19H266.67Z" fill="#EA7F00"/>
<path d="M305.41 148.19L302.83 138.7L299 147.48C298.74 148.06 298.37 148.37 297.79 148.37C297.21 148.37 296.82 148.05 296.58 147.48L292.77 138.7L290.19 148.19H287.87L291.34 135.49C291.51 134.84 291.88 134.52 292.51 134.52C293.01 134.52 293.48 134.8 293.7 135.32L297.86 144.86L302.02 135.32C302.24 134.8 302.65 134.52 303.15 134.52C303.73 134.52 304.1 134.84 304.28 135.49L307.73 148.19H305.39H305.41Z" fill="#EA7F00"/>
<path d="M309.32 148.19V134.69H321.37V137.05H311.66V145.83H321.39V148.19H309.32ZM313.38 142.32V140.33H320.86V142.32H313.38Z" fill="#EA7F00"/>
<path d="M327.74 148.19V137.05H322.61V134.69H335.22V137.05H330.1V148.19H327.74Z" fill="#EA7F00"/>
<path d="M348.32 148.19L346.3 144.79H339.91L341.02 142.88H345.16L342.15 137.83L336.02 148.19H333.33L341.09 135.27C341.37 134.81 341.72 134.51 342.24 134.51C342.76 134.51 343.09 134.81 343.37 135.27L351.15 148.19H348.31H348.32Z" fill="#EA7F00"/>
<path d="M352.62 148.19V134.69H354.98V145.83H364.06V148.19H352.62Z" fill="#EA7F00"/>
<path d="M365.88 148.19V134.69H368.24V148.19H365.88Z" fill="#EA7F00"/>
<path d="M376.88 148.19C373.11 148.19 370.33 145.22 370.33 141.3C370.33 137.38 373.12 134.69 376.88 134.69H384.2V137.05H376.88C374.47 137.05 372.68 138.85 372.68 141.41C372.68 143.97 374.44 145.83 376.88 145.83H384.2V148.19H376.88Z" fill="#EA7F00"/>
<path d="M392.28 148.19C388.51 148.19 385.73 145.22 385.73 141.3C385.73 137.38 388.52 134.69 392.28 134.69H395.57C399.47 134.69 402.18 137.38 402.18 141.3C402.18 145.22 399.41 148.19 395.57 148.19H392.28ZM395.56 145.83C398.05 145.83 399.81 143.95 399.81 141.41C399.81 138.87 398.05 137.05 395.56 137.05H392.27C389.86 137.05 388.07 138.85 388.07 141.41C388.07 143.97 389.83 145.83 392.27 145.83H395.56Z" fill="#EA7F00"/>
<path d="M404.09 148.19V145.83H414.21C415.47 145.83 416.18 145.12 416.18 144.07C416.18 142.92 415.47 142.32 414.21 142.32H408.01C405.47 142.32 403.89 140.7 403.89 138.48C403.89 136.26 405.36 134.69 408.05 134.69H417.74V137.05H408.05C406.97 137.05 406.34 137.68 406.34 138.7C406.34 139.72 406.99 140.33 408.03 140.33H414.21C416.94 140.33 418.41 141.61 418.41 144.23C418.41 146.5 417.04 148.19 414.21 148.19H404.09Z" fill="#EA7F00"/>
<path d="M432.27 148.19V143.07L425.1 134.69H428.28L433.53 140.91L438.8 134.69H441.81L434.62 143.07V148.19H432.26H432.27Z" fill="#EA7F00"/>
<path d="M462.89 148.19L460.87 144.79H454.48L455.59 142.88H459.73L456.72 137.83L450.59 148.19H447.9L455.66 135.27C455.94 134.81 456.29 134.51 456.81 134.51C457.33 134.51 457.66 134.81 457.94 135.27L465.72 148.19H462.88H462.89Z" fill="#EA7F00"/>
<path d="M471.55 148.19C467.78 148.19 465 145.22 465 141.3C465 137.38 467.79 134.69 471.55 134.69H478.87V137.05H471.55C469.14 137.05 467.35 138.85 467.35 141.41C467.35 143.97 469.11 145.83 471.55 145.83H478.87V148.19H471.55Z" fill="#EA7F00"/>
<path d="M493.32 148.19L489.9 144.44H484.85V142.36H490.48C492.17 142.36 493.06 141.39 493.06 139.65C493.06 137.91 492.1 137.05 490.48 137.05H483.13V148.19H480.79V134.69H490.48C493.56 134.69 495.38 136.6 495.38 139.61C495.38 141.84 494.34 143.42 492.59 144.09L496.66 148.19H493.32Z" fill="#EA7F00"/>
<path d="M498.03 148.19V134.69H500.39V148.19H498.03Z" fill="#EA7F00"/>
<path d="M502.86 148.19V134.69H505.22V145.83H514.3V148.19H502.86Z" fill="#EA7F00"/>
<path d="M516.12 148.19V134.69H518.48V148.19H516.12Z" fill="#EA7F00"/>
<path d="M527.12 148.19C523.35 148.19 520.57 145.22 520.57 141.3C520.57 137.38 523.36 134.69 527.12 134.69H534.44V137.05H527.12C524.71 137.05 522.92 138.85 522.92 141.41C522.92 143.97 524.68 145.83 527.12 145.83H534.44V148.19H527.12Z" fill="#EA7F00"/>
<path d="M542.52 148.19C538.75 148.19 535.97 145.22 535.97 141.3C535.97 137.38 538.76 134.69 542.52 134.69H545.81C549.71 134.69 552.42 137.38 552.42 141.3C552.42 145.22 549.65 148.19 545.81 148.19H542.52ZM545.81 145.83C548.3 145.83 550.06 143.95 550.06 141.41C550.06 138.87 548.3 137.05 545.81 137.05H542.52C540.11 137.05 538.32 138.85 538.32 141.41C538.32 143.97 540.08 145.83 542.52 145.83H545.81Z" fill="#EA7F00"/>
<path d="M554.34 148.19V145.83H564.46C565.72 145.83 566.43 145.12 566.43 144.07C566.43 142.92 565.72 142.32 564.46 142.32H558.26C555.72 142.32 554.14 140.7 554.14 138.48C554.14 136.26 555.61 134.69 558.3 134.69H567.99V137.05H558.3C557.22 137.05 556.59 137.68 556.59 138.7C556.59 139.72 557.24 140.33 558.28 140.33H564.46C567.19 140.33 568.66 141.61 568.66 144.23C568.66 146.5 567.29 148.19 564.46 148.19H554.34Z" fill="#EA7F00"/>
<path d="M400.75 110.26L380.09 34.31L349.47 104.61C347.39 109.22 344.42 111.74 339.81 111.74C335.2 111.74 332.08 109.21 330.15 104.61L299.68 34.31L279.02 110.26H260.44L288.23 8.59999C289.57 3.39999 292.54 0.86998 297.59 0.86998C301.6 0.86998 305.32 3.09999 307.1 7.25999L340.39 83.65L373.68 7.25999C375.46 3.09999 378.73 0.86998 382.75 0.86998C387.36 0.86998 390.33 3.39999 391.82 8.59999L419.46 110.26H400.73H400.75Z" fill="#EA7F00"/>
<path d="M544.61 110.26L528.41 83.06H477.28L486.2 67.75H519.34L495.26 27.33L446.22 110.26H424.67L486.79 6.81999C489.02 3.10999 491.84 0.72998 496 0.72998C500.16 0.72998 502.84 3.10999 505.07 6.81999L567.34 110.26H544.6H544.61Z" fill="#EA7F00"/>
<path d="M63.7999 111.85V104.6L32.1699 122.84V130.13L63.7999 111.85Z" fill="#EA7F00"/>
<path d="M63.8 97.25V89.93L19.51 115.49V122.81L63.8 97.25Z" fill="#EA7F00"/>
<path d="M63.8001 82.61V75.32L6.8501 108.21V115.49L63.8001 82.61Z" fill="#EA7F00"/>
<path d="M63.8 38.76V2.23997L0.5 38.76L32.17 57.04L63.8 38.76Z" fill="#EA7F00"/>
<path d="M0.5 38.76V111.85L6.84998 115.49V42.41L0.5 38.76Z" fill="#EA7F00"/>
<path d="M13.1599 46.08V119.17L19.5099 122.81V49.73L13.1599 46.08Z" fill="#EA7F00"/>
<path d="M25.8401 53.39V126.47L32.1901 130.11V57.03L25.8401 53.39Z" fill="#EA7F00"/>
<path d="M95.3999 20.49V93.58L101.74 97.22V24.14L95.3999 20.49Z" fill="#EA7F00"/>
<path d="M108.06 27.81V100.9L114.4 104.54V31.45L108.06 27.81Z" fill="#EA7F00"/>
<path d="M120.73 35.11V108.2L127.08 111.84V38.76L120.73 35.11Z" fill="#EA7F00"/>
<path d="M63.8 38.76V46.05L101.75 24.13L95.4001 20.49L63.8 38.76Z" fill="#EA7F00"/>
<path d="M63.8 53.37V60.69L114.41 31.45L108.1 27.8L63.8 53.37Z" fill="#EA7F00"/>
<path d="M63.8 68.01V75.32L127.07 38.76L120.79 35.12L63.8 68.01Z" fill="#EA7F00"/>
<path d="M95.47 93.57L63.8 111.85V148.37L127.07 111.85L95.47 93.57Z" fill="#EA7F00"/>
</svg>
