<svg width="570" height="149" viewBox="0 0 570 149" fill="none" xmlns="http://www.w3.org/2000/svg">
<path d="M177.24 80.14V61.86H220.64C233.87 61.86 241.74 53.54 241.74 41.35C241.74 29.16 233.86 20.99 220.64 20.99H163.42V110.16H144.69V2.10999H220.63C245.6 2.10999 260.16 17.12 260.16 40.75C260.16 64.38 245.6 80.13 220.63 80.13H177.23L177.24 80.14Z" fill="black"/>
<path d="M400.76 110.16L380.1 34.21L349.48 104.51C347.4 109.12 344.43 111.64 339.82 111.64C335.21 111.64 332.09 109.11 330.16 104.51L299.69 34.21L279.03 110.16H260.45L288.24 8.5C289.58 3.3 292.55 0.769989 297.6 0.769989C301.61 0.769989 305.33 3 307.11 7.16L340.4 83.55L373.69 7.16C375.47 3 378.74 0.769989 382.76 0.769989C387.37 0.769989 390.34 3.3 391.83 8.5L419.47 110.16H400.74H400.76Z" fill="black"/>
<path d="M544.62 110.16L528.42 82.96H477.29L486.21 67.65H519.35L495.27 27.23L446.23 110.16H424.68L486.8 6.72C489.03 3.01 491.85 0.630005 496.01 0.630005C500.17 0.630005 502.85 3.01 505.08 6.72L567.35 110.16H544.61H544.62Z" fill="black"/>
<path d="M135.33 132.9V129.93H256.9V132.9H135.33Z" fill="black"/>
<path d="M256.9 132.9V129.93H569.59V132.9H256.9Z" fill="black"/>
<path d="M140.57 144.31V142.03H145.99C147.64 142.03 148.63 140.99 148.63 139.47C148.63 137.95 147.65 136.93 145.99 136.93H138.84V148.07H136.5V134.57H145.99C149.11 134.57 150.93 136.45 150.93 139.4C150.93 142.35 149.11 144.32 145.99 144.32H140.57V144.31Z" fill="black"/>
<path d="M165.14 148.07L161.72 144.32H156.67V142.24H162.3C163.99 142.24 164.88 141.27 164.88 139.53C164.88 137.79 163.91 136.93 162.3 136.93H154.95V148.07H152.61V134.57H162.3C165.38 134.57 167.2 136.48 167.2 139.49C167.2 141.72 166.16 143.3 164.41 143.97L168.48 148.07H165.14Z" fill="black"/>
<path d="M175.56 148.07C171.79 148.07 169 145.1 169 141.18C169 137.26 171.79 134.57 175.56 134.57H178.85C182.75 134.57 185.46 137.26 185.46 141.18C185.46 145.1 182.69 148.07 178.85 148.07H175.56ZM178.85 145.71C181.34 145.71 183.1 143.83 183.1 141.29C183.1 138.75 181.34 136.93 178.85 136.93H175.56C173.15 136.93 171.36 138.73 171.36 141.29C171.36 143.85 173.12 145.71 175.56 145.71H178.85Z" fill="black"/>
<path d="M187.38 148.07V134.57H195.2C199.01 134.57 201.77 137.26 201.77 141.18C201.77 145.1 199 148.07 195.2 148.07H187.38ZM195.2 145.71C197.63 145.71 199.42 143.83 199.42 141.29C199.42 138.75 197.64 136.93 195.2 136.93H189.72V145.71H195.2Z" fill="black"/>
<path d="M215.78 134.57H218.08V142.11C218.08 146.29 216.02 148.26 210.78 148.26C205.54 148.26 203.5 146.29 203.5 142.11V134.57H205.93V142.11C205.93 144.82 207.14 145.94 210.85 145.94C214.56 145.94 215.77 144.83 215.77 142.11V134.57H215.78Z" fill="black"/>
<path d="M226.39 148.07C222.62 148.07 219.83 145.1 219.83 141.18C219.83 137.26 222.62 134.57 226.39 134.57H233.71V136.93H226.39C223.98 136.93 222.19 138.73 222.19 141.29C222.19 143.85 223.95 145.71 226.39 145.71H233.71V148.07H226.39Z" fill="black"/>
<path d="M239.95 148.07V136.93H234.83V134.57H247.44V136.93H242.31V148.07H239.95Z" fill="black"/>
<path d="M254.85 148.07C251.08 148.07 248.29 145.1 248.29 141.18C248.29 137.26 251.08 134.57 254.85 134.57H258.14C262.04 134.57 264.75 137.26 264.75 141.18C264.75 145.1 261.98 148.07 258.14 148.07H254.85ZM258.14 145.71C260.63 145.71 262.39 143.83 262.39 141.29C262.39 138.75 260.63 136.93 258.14 136.93H254.85C252.44 136.93 250.65 138.73 250.65 141.29C250.65 143.85 252.41 145.71 254.85 145.71H258.14Z" fill="black"/>
<path d="M266.67 148.07V145.71H276.79C278.05 145.71 278.76 145 278.76 143.95C278.76 142.8 278.05 142.2 276.79 142.2H270.59C268.05 142.2 266.47 140.58 266.47 138.36C266.47 136.14 267.94 134.57 270.63 134.57H280.32V136.93H270.63C269.55 136.93 268.92 137.56 268.92 138.58C268.92 139.6 269.57 140.21 270.61 140.21H276.79C279.52 140.21 280.99 141.49 280.99 144.11C280.99 146.38 279.62 148.07 276.79 148.07H266.67Z" fill="black"/>
<path d="M305.41 148.07L302.83 138.58L299 147.36C298.74 147.94 298.37 148.25 297.79 148.25C297.21 148.25 296.82 147.93 296.58 147.36L292.77 138.58L290.19 148.07H287.87L291.34 135.37C291.51 134.72 291.88 134.4 292.51 134.4C293.01 134.4 293.48 134.68 293.7 135.2L297.86 144.74L302.02 135.2C302.24 134.68 302.65 134.4 303.15 134.4C303.73 134.4 304.1 134.72 304.28 135.37L307.73 148.07H305.39H305.41Z" fill="black"/>
<path d="M309.32 148.07V134.57H321.37V136.93H311.66V145.71H321.39V148.07H309.32ZM313.38 142.2V140.21H320.86V142.2H313.38Z" fill="black"/>
<path d="M327.74 148.07V136.93H322.61V134.57H335.22V136.93H330.1V148.07H327.74Z" fill="black"/>
<path d="M348.32 148.07L346.3 144.67H339.91L341.02 142.76H345.16L342.15 137.71L336.02 148.07H333.33L341.09 135.15C341.37 134.69 341.72 134.39 342.24 134.39C342.76 134.39 343.09 134.69 343.37 135.15L351.15 148.07H348.31H348.32Z" fill="black"/>
<path d="M352.62 148.07V134.57H354.98V145.71H364.06V148.07H352.62Z" fill="black"/>
<path d="M365.88 148.07V134.57H368.24V148.07H365.88Z" fill="black"/>
<path d="M376.88 148.07C373.11 148.07 370.33 145.1 370.33 141.18C370.33 137.26 373.12 134.57 376.88 134.57H384.2V136.93H376.88C374.47 136.93 372.68 138.73 372.68 141.29C372.68 143.85 374.44 145.71 376.88 145.71H384.2V148.07H376.88Z" fill="black"/>
<path d="M392.28 148.07C388.51 148.07 385.73 145.1 385.73 141.18C385.73 137.26 388.52 134.57 392.28 134.57H395.57C399.47 134.57 402.18 137.26 402.18 141.18C402.18 145.1 399.41 148.07 395.57 148.07H392.28ZM395.56 145.71C398.05 145.71 399.81 143.83 399.81 141.29C399.81 138.75 398.05 136.93 395.56 136.93H392.27C389.86 136.93 388.07 138.73 388.07 141.29C388.07 143.85 389.83 145.71 392.27 145.71H395.56Z" fill="black"/>
<path d="M404.09 148.07V145.71H414.21C415.47 145.71 416.18 145 416.18 143.95C416.18 142.8 415.47 142.2 414.21 142.2H408.01C405.47 142.2 403.89 140.58 403.89 138.36C403.89 136.14 405.36 134.57 408.05 134.57H417.74V136.93H408.05C406.97 136.93 406.34 137.56 406.34 138.58C406.34 139.6 406.99 140.21 408.03 140.21H414.21C416.94 140.21 418.41 141.49 418.41 144.11C418.41 146.38 417.04 148.07 414.21 148.07H404.09Z" fill="black"/>
<path d="M432.27 148.07V142.95L425.1 134.57H428.28L433.53 140.79L438.8 134.57H441.81L434.62 142.95V148.07H432.26H432.27Z" fill="black"/>
<path d="M462.89 148.07L460.87 144.67H454.48L455.59 142.76H459.73L456.72 137.71L450.59 148.07H447.9L455.66 135.15C455.94 134.69 456.29 134.39 456.81 134.39C457.33 134.39 457.66 134.69 457.94 135.15L465.72 148.07H462.88H462.89Z" fill="black"/>
<path d="M471.55 148.07C467.78 148.07 465 145.1 465 141.18C465 137.26 467.79 134.57 471.55 134.57H478.87V136.93H471.55C469.14 136.93 467.35 138.73 467.35 141.29C467.35 143.85 469.11 145.71 471.55 145.71H478.87V148.07H471.55Z" fill="black"/>
<path d="M493.32 148.07L489.9 144.32H484.85V142.24H490.48C492.17 142.24 493.06 141.27 493.06 139.53C493.06 137.79 492.1 136.93 490.48 136.93H483.13V148.07H480.79V134.57H490.48C493.56 134.57 495.38 136.48 495.38 139.49C495.38 141.72 494.34 143.3 492.59 143.97L496.66 148.07H493.32Z" fill="black"/>
<path d="M498.03 148.07V134.57H500.39V148.07H498.03Z" fill="black"/>
<path d="M502.86 148.07V134.57H505.22V145.71H514.3V148.07H502.86Z" fill="black"/>
<path d="M516.12 148.07V134.57H518.48V148.07H516.12Z" fill="black"/>
<path d="M527.12 148.07C523.35 148.07 520.57 145.1 520.57 141.18C520.57 137.26 523.36 134.57 527.12 134.57H534.44V136.93H527.12C524.71 136.93 522.92 138.73 522.92 141.29C522.92 143.85 524.68 145.71 527.12 145.71H534.44V148.07H527.12Z" fill="black"/>
<path d="M542.52 148.07C538.75 148.07 535.97 145.1 535.97 141.18C535.97 137.26 538.76 134.57 542.52 134.57H545.81C549.71 134.57 552.42 137.26 552.42 141.18C552.42 145.1 549.65 148.07 545.81 148.07H542.52ZM545.81 145.71C548.3 145.71 550.06 143.83 550.06 141.29C550.06 138.75 548.3 136.93 545.81 136.93H542.52C540.11 136.93 538.32 138.73 538.32 141.29C538.32 143.85 540.08 145.71 542.52 145.71H545.81Z" fill="black"/>
<path d="M554.34 148.07V145.71H564.46C565.72 145.71 566.43 145 566.43 143.95C566.43 142.8 565.72 142.2 564.46 142.2H558.26C555.72 142.2 554.14 140.58 554.14 138.36C554.14 136.14 555.61 134.57 558.3 134.57H567.99V136.93H558.3C557.22 136.93 556.59 137.56 556.59 138.58C556.59 139.6 557.24 140.21 558.28 140.21H564.46C567.19 140.21 568.66 141.49 568.66 144.11C568.66 146.38 567.29 148.07 564.46 148.07H554.34Z" fill="black"/>
<path d="M400.75 110.14L380.09 34.19L349.47 104.49C347.39 109.1 344.42 111.62 339.81 111.62C335.2 111.62 332.08 109.09 330.15 104.49L299.68 34.19L279.02 110.14H260.44L288.23 8.48001C289.57 3.28001 292.54 0.75 297.59 0.75C301.6 0.75 305.32 2.98001 307.1 7.14001L340.39 83.53L373.68 7.14001C375.46 2.98001 378.73 0.75 382.75 0.75C387.36 0.75 390.33 3.28001 391.82 8.48001L419.46 110.14H400.73H400.75Z" fill="black"/>
<path d="M544.61 110.14L528.41 82.94H477.28L486.2 67.63H519.34L495.26 27.21L446.22 110.14H424.67L486.79 6.70001C489.02 2.99001 491.84 0.609985 496 0.609985C500.16 0.609985 502.84 2.99001 505.07 6.70001L567.34 110.14H544.6H544.61Z" fill="black"/>
<path d="M63.7999 111.73V104.48L32.1699 122.72V130.01L63.7999 111.73Z" fill="black"/>
<path d="M63.8 97.12V89.81L19.51 115.37V122.69L63.8 97.12Z" fill="black"/>
<path d="M63.8001 82.49V75.2L6.8501 108.09V115.37L63.8001 82.49Z" fill="black"/>
<path d="M63.8 38.64V2.12L0.5 38.64L32.17 56.92L63.8 38.64Z" fill="black"/>
<path d="M0.5 38.64V111.73L6.84998 115.37V42.29L0.5 38.64Z" fill="black"/>
<path d="M13.1599 45.96V119.05L19.5099 122.69V49.6L13.1599 45.96Z" fill="black"/>
<path d="M25.8401 53.26V126.35L32.1901 129.99V56.91L25.8401 53.26Z" fill="black"/>
<path d="M95.3999 20.37V93.46L101.74 97.1V24.02L95.3999 20.37Z" fill="black"/>
<path d="M108.06 27.69V100.78L114.4 104.42V31.33L108.06 27.69Z" fill="black"/>
<path d="M120.73 34.99V108.08L127.08 111.72V38.64L120.73 34.99Z" fill="black"/>
<path d="M63.8 38.64V45.93L101.75 24.01L95.4001 20.36L63.8 38.64Z" fill="black"/>
<path d="M63.8 53.25V60.57L114.41 31.33L108.1 27.68L63.8 53.25Z" fill="black"/>
<path d="M63.8 67.88V75.2L127.07 38.64L120.79 35L63.8 67.88Z" fill="black"/>
<path d="M95.47 93.45L63.8 111.73V148.25L127.07 111.73L95.47 93.45Z" fill="black"/>
</svg>
