<svg width="570" height="148" viewBox="0 0 570 148" fill="none" xmlns="http://www.w3.org/2000/svg">
<path d="M176.74 79.53V61.25H220.14C233.37 61.25 241.24 52.93 241.24 40.74C241.24 28.55 233.36 20.38 220.14 20.38H162.92V109.55H144.19V1.50999H220.13C245.1 1.50999 259.66 16.52 259.66 40.15C259.66 63.78 245.1 79.53 220.13 79.53H176.73H176.74Z" fill="#EA7F00"/>
<path d="M400.26 109.56L379.6 33.61L348.98 103.91C346.9 108.52 343.93 111.04 339.32 111.04C334.71 111.04 331.59 108.51 329.66 103.91L299.19 33.61L278.53 109.56H259.95L287.74 7.9C289.08 2.7 292.05 0.169998 297.1 0.169998C301.11 0.169998 304.83 2.4 306.61 6.56L339.9 82.95L373.21 6.56C374.99 2.4 378.26 0.169998 382.28 0.169998C386.89 0.169998 389.86 2.7 391.35 7.9L418.99 109.56H400.26Z" fill="#EA7F00"/>
<path d="M544.12 109.56L527.92 82.36H476.79L485.71 67.05H518.85L494.77 26.63L445.73 109.56H424.18L486.3 6.12C488.53 2.41 491.35 0.0299988 495.51 0.0299988C499.67 0.0299988 502.35 2.41 504.58 6.12L566.85 109.56H544.11H544.12Z" fill="#EA7F00"/>
<path d="M134.83 132.29V129.32H256.4V132.29H134.83Z" fill="#EA7F00"/>
<path d="M256.39 132.29V129.32H569.08V132.29H256.39Z" fill="#EA7F00"/>
<path d="M140.06 143.71V141.43H145.48C147.13 141.43 148.12 140.39 148.12 138.87C148.12 137.35 147.14 136.33 145.48 136.33H138.33V147.47H135.99V133.97H145.48C148.6 133.97 150.42 135.85 150.42 138.8C150.42 141.75 148.6 143.72 145.48 143.72H140.06V143.71Z" fill="white"/>
<path d="M164.64 147.46L161.22 143.71H156.17V141.63H161.8C163.49 141.63 164.38 140.66 164.38 138.92C164.38 137.18 163.41 136.32 161.8 136.32H154.45V147.46H152.11V133.96H161.8C164.88 133.96 166.7 135.87 166.7 138.88C166.7 141.11 165.66 142.69 163.91 143.36L167.98 147.46H164.64Z" fill="white"/>
<path d="M175.06 147.46C171.29 147.46 168.5 144.49 168.5 140.57C168.5 136.65 171.29 133.96 175.06 133.96H178.35C182.25 133.96 184.96 136.65 184.96 140.57C184.96 144.49 182.19 147.46 178.35 147.46H175.06ZM178.35 145.1C180.84 145.1 182.6 143.22 182.6 140.68C182.6 138.14 180.84 136.32 178.35 136.32H175.06C172.65 136.32 170.86 138.12 170.86 140.68C170.86 143.24 172.62 145.1 175.06 145.1H178.35Z" fill="white"/>
<path d="M186.88 147.46V133.96H194.7C198.51 133.96 201.27 136.65 201.27 140.57C201.27 144.49 198.5 147.46 194.7 147.46H186.88ZM194.7 145.1C197.13 145.1 198.92 143.22 198.92 140.68C198.92 138.14 197.14 136.32 194.7 136.32H189.22V145.1H194.7Z" fill="white"/>
<path d="M215.28 133.96H217.58V141.5C217.58 145.68 215.52 147.65 210.28 147.65C205.04 147.65 203 145.68 203 141.5V133.96H205.43V141.5C205.43 144.21 206.64 145.33 210.35 145.33C214.06 145.33 215.27 144.22 215.27 141.5V133.96H215.28Z" fill="white"/>
<path d="M225.89 147.46C222.12 147.46 219.33 144.49 219.33 140.57C219.33 136.65 222.12 133.96 225.89 133.96H233.21V136.32H225.89C223.48 136.32 221.69 138.12 221.69 140.68C221.69 143.24 223.45 145.1 225.89 145.1H233.21V147.46H225.89Z" fill="white"/>
<path d="M239.45 147.46V136.32H234.33V133.96H246.94V136.32H241.81V147.46H239.45Z" fill="white"/>
<path d="M254.35 147.46C250.58 147.46 247.79 144.49 247.79 140.57C247.79 136.65 250.58 133.96 254.35 133.96H257.64C261.54 133.96 264.25 136.65 264.25 140.57C264.25 144.49 261.48 147.46 257.64 147.46H254.35ZM257.63 145.1C260.12 145.1 261.88 143.22 261.88 140.68C261.88 138.14 260.12 136.32 257.63 136.32H254.34C251.93 136.32 250.14 138.12 250.14 140.68C250.14 143.24 251.9 145.1 254.34 145.1H257.63Z" fill="white"/>
<path d="M266.17 147.46V145.1H276.29C277.55 145.1 278.26 144.39 278.26 143.34C278.26 142.19 277.55 141.59 276.29 141.59H270.09C267.55 141.59 265.97 139.97 265.97 137.75C265.97 135.53 267.44 133.96 270.13 133.96H279.82V136.32H270.13C269.05 136.32 268.42 136.95 268.42 137.97C268.42 138.99 269.07 139.6 270.11 139.6H276.29C279.02 139.6 280.49 140.88 280.49 143.5C280.49 145.77 279.12 147.46 276.29 147.46H266.17Z" fill="white"/>
<path d="M304.9 147.46L302.32 137.97L298.49 146.75C298.23 147.33 297.86 147.64 297.28 147.64C296.7 147.64 296.31 147.32 296.07 146.75L292.26 137.97L289.68 147.46H287.36L290.83 134.76C291 134.11 291.37 133.79 292 133.79C292.5 133.79 292.97 134.07 293.19 134.59L297.35 144.13L301.51 134.59C301.73 134.07 302.14 133.79 302.64 133.79C303.22 133.79 303.59 134.11 303.77 134.76L307.22 147.46H304.88H304.9Z" fill="white"/>
<path d="M308.81 147.46V133.96H320.86V136.32H311.15V145.1H320.88V147.46H308.81ZM312.88 141.59V139.6H320.36V141.59H312.88Z" fill="white"/>
<path d="M327.24 147.46V136.32H322.11V133.96H334.72V136.32H329.6V147.46H327.24Z" fill="white"/>
<path d="M347.82 147.46L345.8 144.06H339.41L340.52 142.15H344.66L341.65 137.1L335.52 147.46H332.83L340.59 134.54C340.87 134.08 341.22 133.78 341.74 133.78C342.26 133.78 342.59 134.08 342.87 134.54L350.65 147.46H347.81H347.82Z" fill="white"/>
<path d="M352.11 147.46V133.96H354.47V145.1H363.55V147.46H352.11Z" fill="white"/>
<path d="M365.38 147.46V133.96H367.74V147.46H365.38Z" fill="white"/>
<path d="M376.37 147.46C372.6 147.46 369.82 144.49 369.82 140.57C369.82 136.65 372.61 133.96 376.37 133.96H383.69V136.32H376.37C373.96 136.32 372.17 138.12 372.17 140.68C372.17 143.24 373.93 145.1 376.37 145.1H383.69V147.46H376.37Z" fill="white"/>
<path d="M391.77 147.46C388 147.46 385.22 144.49 385.22 140.57C385.22 136.65 388.01 133.96 391.77 133.96H395.06C398.96 133.96 401.67 136.65 401.67 140.57C401.67 144.49 398.9 147.46 395.06 147.46H391.77ZM395.06 145.1C397.55 145.1 399.31 143.22 399.31 140.68C399.31 138.14 397.55 136.32 395.06 136.32H391.77C389.36 136.32 387.57 138.12 387.57 140.68C387.57 143.24 389.33 145.1 391.77 145.1H395.06Z" fill="white"/>
<path d="M403.59 147.46V145.1H413.71C414.97 145.1 415.68 144.39 415.68 143.34C415.68 142.19 414.97 141.59 413.71 141.59H407.51C404.97 141.59 403.39 139.97 403.39 137.75C403.39 135.53 404.86 133.96 407.55 133.96H417.24V136.32H407.55C406.47 136.32 405.84 136.95 405.84 137.97C405.84 138.99 406.49 139.6 407.53 139.6H413.71C416.44 139.6 417.91 140.88 417.91 143.5C417.91 145.77 416.54 147.46 413.71 147.46H403.59Z" fill="white"/>
<path d="M431.77 147.46V142.34L424.6 133.96H427.78L433.03 140.18L438.3 133.96H441.31L434.12 142.34V147.46H431.76H431.77Z" fill="white"/>
<path d="M462.39 147.46L460.37 144.06H453.98L455.09 142.15H459.23L456.22 137.1L450.09 147.46H447.4L455.16 134.54C455.44 134.08 455.79 133.78 456.31 133.78C456.83 133.78 457.16 134.08 457.44 134.54L465.22 147.46H462.38H462.39Z" fill="white"/>
<path d="M471.05 147.46C467.28 147.46 464.5 144.49 464.5 140.57C464.5 136.65 467.29 133.96 471.05 133.96H478.37V136.32H471.05C468.64 136.32 466.85 138.12 466.85 140.68C466.85 143.24 468.61 145.1 471.05 145.1H478.37V147.46H471.05Z" fill="white"/>
<path d="M492.82 147.46L489.4 143.71H484.35V141.63H489.98C491.67 141.63 492.56 140.66 492.56 138.92C492.56 137.18 491.6 136.32 489.98 136.32H482.63V147.46H480.29V133.96H489.98C493.06 133.96 494.88 135.87 494.88 138.88C494.88 141.11 493.84 142.69 492.09 143.36L496.16 147.46H492.82Z" fill="white"/>
<path d="M497.53 147.46V133.96H499.89V147.46H497.53Z" fill="white"/>
<path d="M502.36 147.46V133.96H504.72V145.1H513.8V147.46H502.36Z" fill="white"/>
<path d="M515.62 147.46V133.96H517.98V147.46H515.62Z" fill="white"/>
<path d="M526.61 147.46C522.84 147.46 520.06 144.49 520.06 140.57C520.06 136.65 522.85 133.96 526.61 133.96H533.93V136.32H526.61C524.2 136.32 522.41 138.12 522.41 140.68C522.41 143.24 524.17 145.1 526.61 145.1H533.93V147.46H526.61Z" fill="white"/>
<path d="M542.02 147.46C538.25 147.46 535.47 144.49 535.47 140.57C535.47 136.65 538.26 133.96 542.02 133.96H545.31C549.21 133.96 551.92 136.65 551.92 140.57C551.92 144.49 549.15 147.46 545.31 147.46H542.02ZM545.3 145.1C547.79 145.1 549.55 143.22 549.55 140.68C549.55 138.14 547.79 136.32 545.3 136.32H542.01C539.6 136.32 537.81 138.12 537.81 140.68C537.81 143.24 539.57 145.1 542.01 145.1H545.3Z" fill="white"/>
<path d="M553.83 147.46V145.1H563.95C565.21 145.1 565.92 144.39 565.92 143.34C565.92 142.19 565.21 141.59 563.95 141.59H557.75C555.21 141.59 553.63 139.97 553.63 137.75C553.63 135.53 555.1 133.96 557.79 133.96H567.48V136.32H557.79C556.71 136.32 556.08 136.95 556.08 137.97C556.08 138.99 556.73 139.6 557.77 139.6H563.95C566.68 139.6 568.15 140.88 568.15 143.5C568.15 145.77 566.78 147.46 563.95 147.46H553.83Z" fill="white"/>
<path d="M400.25 109.53L379.59 33.58L348.97 103.88C346.89 108.49 343.92 111.01 339.31 111.01C334.7 111.01 331.58 108.48 329.65 103.88L299.18 33.58L278.52 109.53H259.94L287.73 7.87C289.07 2.67 292.04 0.139999 297.09 0.139999C301.1 0.139999 304.82 2.37 306.6 6.53L339.89 82.92L373.2 6.54C374.98 2.38 378.25 0.149999 382.27 0.149999C386.88 0.149999 389.85 2.68 391.34 7.88L418.98 109.54H400.25V109.53Z" fill="white"/>
<path d="M544.11 109.53L527.91 82.33H476.78L485.7 67.02H518.84L494.76 26.6L445.72 109.53H424.17L486.29 6.09C488.52 2.38 491.34 0 495.5 0C499.66 0 502.34 2.38 504.57 6.09L566.84 109.53H544.1H544.11Z" fill="white"/>
<path d="M63.3 111.12V103.87L31.67 122.12V129.4L63.3 111.12Z" fill="#EA7F00"/>
<path d="M63.3 96.52V89.2L19.01 114.76V122.08L63.3 96.52Z" fill="#EA7F00"/>
<path d="M63.3 81.88V74.6L6.34998 107.48V114.76L63.3 81.88Z" fill="#EA7F00"/>
<path d="M63.3 38.04V1.50999L0 38.04L31.67 56.32L63.3 38.04Z" fill="#EA7F00"/>
<path d="M0 38.04V111.12L6.35 114.76V41.68L0 38.04Z" fill="white"/>
<path d="M12.66 45.36V118.44L19.01 122.08V49L12.66 45.36Z" fill="white"/>
<path d="M25.34 52.66V125.74L31.69 129.38V56.3L25.34 52.66Z" fill="white"/>
<path d="M94.89 19.77V92.85L101.24 96.49V23.41L94.89 19.77Z" fill="#EA7F00"/>
<path d="M107.55 27.09V100.17L113.9 103.81V30.73L107.55 27.09Z" fill="#EA7F00"/>
<path d="M120.23 34.39V107.47L126.58 111.11V38.03L120.23 34.39Z" fill="#EA7F00"/>
<path d="M63.3 38.04V45.32L101.25 23.4L94.9001 19.76L63.3 38.04Z" fill="white"/>
<path d="M63.3 52.64V59.96L113.91 30.72L107.6 27.08L63.3 52.64Z" fill="white"/>
<path d="M63.3 67.28V74.6L126.57 38.04L120.29 34.4L63.3 67.28Z" fill="white"/>
<path d="M94.9701 92.84L63.3 111.12V147.65L126.57 111.12L94.9701 92.84Z" fill="white"/>
</svg>
